<svg width="70" height="91" viewBox="0 0 70 91" fill="none" xmlns="http://www.w3.org/2000/svg">
<path d="M62.9474 50.4434C62.9474 56.7349 58.1033 51.97 59.6793 65.9704C59.9463 67.0271 59.9463 67.2912 59.9463 68.4287C58.8719 70.197 58.4625 70.2515 57.8471 70.7253C46.3483 77.5934 54.6529 77.9134 50.4746 80.8061C45.8061 86.0465 48.6242 80.1294 33.1254 85.254C33.1254 85.254 21.0074 84.1492 20.1869 85.254C18.1736 86.1315 10.4517 88.1124 16.8564 81.2917C23.2612 74.4709 13.526 77.5934 13.526 77.5934C13.526 77.5934 11.0892 66.8751 12.0249 60.3619C12.9607 53.8487 11.0892 23.5481 11.0892 23.5481C19.8739 19.5836 9.92105 18.4737 7.18421 22.5789C6.15789 16.0789 15.5274 17.7832 15.3399 16.7517C16.0789 15.3947 10.2632 15.3947 8.21052 13.3421C8.21052 13.3421 19.5 14.0263 23.935 15.0526C34.5526 18.1316 33.1842 11.6316 39.9713 16.6965C44.7853 17.7924 46.8684 20.1162 52.3502 21.2105C53.0263 21.8947 53.3684 23.2632 53.9746 21.5526C62.6053 21.5526 50.6468 22.7263 52.3502 27.0263C54.1634 31.6033 62.9474 43.4813 62.9474 50.4434ZM56.3827 49.8633C60.9214 44.0452 55.6325 38.8399 54.132 34.972C52.694 31.1042 41.7368 25.9793 47.6612 25.9793C54.132 26.3421 39.7053 19.996 35.5789 19.1579C31.5152 18.3199 28.5614 20.1775 23.3723 20.1775H18.4957C18.4957 20.1775 11.0892 73.0439 18.4957 68.291C16.8341 70.5564 15.0565 75.9369 25.1072 73.3669C19.9307 80.1294 25.1072 80.1294 25.1072 80.1294H31.7187C37.9081 80.1294 32.7403 78.1217 46.3483 76.1649C50.4746 77.0056 52.5377 69.815 54.0382 65.2379C55.6012 60.661 56.3827 55.5361 56.3827 49.8633Z" fill="white"/>
<path fill-rule="evenodd" clip-rule="evenodd" d="M33.2164 73.066C34.3979 73.8122 34.7747 75.7993 33.3873 75.9661C32.5532 76.0664 31.7295 75.2674 31.5181 71.9936L33.2164 73.066ZM35.8086 38.4784C37.8262 39.1413 39.622 40.9123 37.2136 45.5519C36.8704 46.2131 36.1902 46.6288 35.458 46.7664C33.5883 47.1177 34.0668 47.504 34.8013 48.0969C35.604 48.7448 36.7123 49.6394 35.3959 51.005C32.396 54.1168 31.407 62.0478 31.6441 65.7698C31.6522 65.8962 31.6516 66.0275 31.642 66.1538C31.4503 68.6604 31.4258 70.5632 31.5181 71.9936L31.0621 71.7056C30.2053 71.1645 29.7728 70.1468 29.9304 69.1458C30.3489 66.4889 31.0093 60.9938 30.4661 55.2624C30.462 55.2193 30.4554 55.176 30.4488 55.1327C30.4333 55.0316 30.4178 54.9303 30.4345 54.8306C30.4846 54.53 30.7841 54.2091 31.1177 53.8518C31.887 53.0276 32.8377 52.0091 31.3292 50.5963C31.0486 50.3335 30.786 49.667 30.6373 49.2898C30.6324 49.2774 30.6277 49.2654 30.6231 49.2537C30.0736 47.8613 29.8575 45.5987 31.1854 44.9078C31.4724 44.7585 31.7241 44.6078 31.9246 44.4544C32.3967 44.0934 32.5118 43.4216 32.6275 42.747C32.7361 42.1135 32.8451 41.4774 33.2506 41.094C34.2392 40.1591 35.087 39.2881 35.8086 38.4784ZM35.8086 38.4784C35.5449 38.3918 35.2773 38.3241 35.0149 38.2714C33.7757 38.0224 32.719 36.9319 32.8758 35.6776C32.9396 35.1671 32.7846 34.6599 32.5389 34.2078C29.1467 27.9663 46.6103 26.3589 35.8086 38.4784ZM36.5064 35.2453C37.6223 35.2453 38.5269 34.3407 38.5269 33.2248C38.5269 32.109 37.6223 31.2044 36.5064 31.2044C35.3906 31.2044 34.486 32.109 34.486 33.2248C34.486 34.3407 35.3906 35.2453 36.5064 35.2453Z" fill="white"/>
</svg>
