<svg width="49" height="85" viewBox="0 0 49 85" fill="none" xmlns="http://www.w3.org/2000/svg">
<path d="M24.1406 72.1406L24.0937 72.6094C24.0781 72.9062 24.0547 73.3203 24.0234 73.8516C24.0078 74.3672 24 74.8828 24 75.3984C24 75.7266 24 76.0625 24 76.4062C24.0156 76.7344 24.0312 77.0312 24.0469 77.2969C24.0625 77.5469 24.0781 77.7734 24.0937 77.9766C24.1094 78.1797 24.1172 78.3437 24.1172 78.4687C24.1328 78.5937 24.1406 78.6641 24.1406 78.6797C24.1406 78.9922 23.9375 79.1484 23.5312 79.1484C23.2812 79.1484 23.125 79.0859 23.0625 78.9609C23 78.8203 22.9531 78.5078 22.9219 78.0234C22.9062 77.7578 22.8906 77.5469 22.875 77.3906C22.8437 77.0625 22.7578 76.8516 22.6172 76.7578C22.4766 76.6484 22.2656 76.5937 21.9844 76.5937L9.82031 76.5937C9.66406 76.5937 9.54687 76.6016 9.46875 76.6172C9.39062 76.6328 9.30469 76.6953 9.21094 76.8047C9.11719 76.8984 9.07031 77.0391 9.07031 77.2266L9.07031 80.8125C9.07031 81.1094 9.10937 81.3125 9.1875 81.4219C9.25 81.5312 9.375 81.6328 9.5625 81.7266C10.8594 82.3828 11.5391 82.7344 11.6016 82.7812C11.7266 82.8906 11.7891 83.0234 11.7891 83.1797C11.7891 83.3359 11.7344 83.4687 11.625 83.5781C11.5 83.6719 11.3516 83.7187 11.1797 83.7187L11.1562 83.7187C11.0937 83.7187 9.99219 83.4844 7.85156 83.0156C7.60156 82.9687 7.47656 82.8047 7.47656 82.5234L7.47656 68.5312C7.47656 68.2656 7.66406 68.1016 8.03906 68.0391C10.0703 67.6484 11.0937 67.4531 11.1094 67.4531C11.25 67.4531 11.375 67.5 11.4844 67.5937C11.5937 67.6875 11.6484 67.7969 11.6484 67.9219C11.6484 68.1094 11.4922 68.2891 11.1797 68.4609C11.0234 68.5547 10.8516 68.6562 10.6641 68.7656C10.4609 68.875 10.3125 68.9609 10.2187 69.0234C10.1094 69.0703 9.99219 69.1328 9.86719 69.2109C9.72656 69.2734 9.63281 69.3281 9.58594 69.375C9.52344 69.4219 9.46094 69.4687 9.39844 69.5156C9.32031 69.5625 9.27344 69.6094 9.25781 69.6562C9.22656 69.6875 9.19531 69.7266 9.16406 69.7734C9.13281 69.8203 9.11719 69.875 9.11719 69.9375C9.10156 69.9844 9.09375 70.0391 9.09375 70.1016C9.07812 70.1484 9.07031 70.2109 9.07031 70.2891L9.07031 73.8281C9.07031 73.9844 9.10937 74.1094 9.1875 74.2031C9.26562 74.2812 9.34375 74.3281 9.42187 74.3437C9.48437 74.3437 9.58594 74.3437 9.72656 74.3437L22.2891 74.3437C22.5391 74.3437 22.6953 74.2734 22.7578 74.1328C22.8203 73.9766 22.875 73.5781 22.9219 72.9375C22.9531 72.6094 22.9766 72.3516 22.9922 72.1641C23.0078 71.9922 23.0625 71.8828 23.1562 71.8359C23.25 71.7734 23.4219 71.7422 23.6719 71.7422C23.9844 71.7422 24.1406 71.875 24.1406 72.1406ZM21.0937 65.1562C20.2812 65.1562 19.5234 65.1562 18.8203 65.1562C18.1172 65.1562 17.5703 65.1562 17.1797 65.1562C16.7734 65.1406 16.5312 65.1328 16.4531 65.1328C16.2812 65.1328 16.1641 65.1953 16.1016 65.3203C16.0234 65.4297 15.8125 65.9062 15.4687 66.75C15.3906 66.9531 15.2891 67.0547 15.1641 67.0547C15.1172 67.0547 15.0703 67.0469 15.0234 67.0312C14.9766 67 14.9375 66.9609 14.9062 66.9141C14.875 66.8516 14.8516 66.7969 14.8359 66.75C14.8047 66.7031 14.7734 66.6406 14.7422 66.5625C14.7109 66.4844 14.6875 66.4297 14.6719 66.3984C13.8281 64.6484 13.4062 63.7656 13.4062 63.75L13.4062 63.7266C13.4062 63.5078 13.5391 63.3984 13.8047 63.3984L14.5781 63.4219C15.0937 63.4531 15.7891 63.4844 16.6641 63.5156C17.5234 63.5312 18.3828 63.5391 19.2422 63.5391L20.0391 63.5391C21.5234 63.5391 22.3984 63.5156 22.6641 63.4687C22.9297 63.4219 23.0781 63.2656 23.1094 63C23.1719 62.5312 23.2266 62.2344 23.2734 62.1094C23.3203 61.9844 23.4375 61.9219 23.625 61.9219C23.9687 61.9219 24.1406 62.0156 24.1406 62.2031C24.1406 62.2187 24.1328 62.2656 24.1172 62.3437C24.1172 62.4219 24.1094 62.5312 24.0937 62.6719C24.0781 62.8125 24.0625 62.9687 24.0469 63.1406C24.0312 63.3125 24.0156 63.5156 24 63.75C24 63.9687 24 64.1875 24 64.4062C24 64.625 24 64.8516 24 65.0859C24.0156 65.3203 24.0312 65.5234 24.0469 65.6953C24.0625 65.8516 24.0781 66 24.0937 66.1406C24.1094 66.2812 24.1172 66.3906 24.1172 66.4687C24.1328 66.5469 24.1406 66.5937 24.1406 66.6094C24.1406 66.8594 24.0078 66.9844 23.7422 66.9844C23.4766 66.9844 23.3203 66.9375 23.2734 66.8437C23.2266 66.7344 23.1641 66.3828 23.0859 65.7891C23.0391 65.5078 22.9531 65.3359 22.8281 65.2734C22.6875 65.1953 22.4844 65.1562 22.2187 65.1562L21.0937 65.1562ZM9.16406 64.9219C8.85156 64.9219 8.58594 64.8047 8.36719 64.5703C8.14844 64.3359 8.03906 64.0625 8.03906 63.75C8.03906 63.4375 8.14844 63.1719 8.36719 62.9531C8.58594 62.7187 8.84375 62.6016 9.14062 62.6016C9.46875 62.6016 9.74219 62.7187 9.96094 62.9531C10.1797 63.1719 10.2891 63.4453 10.2891 63.7734C10.2891 64.1016 10.1875 64.375 9.98437 64.5937C9.76562 64.8125 9.49219 64.9219 9.16406 64.9219ZM14.9297 58.1953C14.9297 58.1797 14.8437 58.0547 14.6719 57.8203C14.4844 57.5859 14.3047 57.2656 14.1328 56.8594C13.9609 56.4375 13.875 56.0156 13.875 55.5937C13.875 55.375 13.8984 55.1641 13.9453 54.9609C13.9922 54.7578 14.0547 54.5703 14.1328 54.3984C14.2109 54.2266 14.2969 54.0703 14.3906 53.9297C14.4844 53.7734 14.5781 53.6406 14.6719 53.5312C14.7656 53.4219 14.8516 53.3281 14.9297 53.25C14.9922 53.1719 15.0469 53.1094 15.0937 53.0625L15.1875 52.9922C15.2031 52.9766 15.2109 52.9453 15.2109 52.8984C15.2109 52.8516 15.2031 52.8125 15.1875 52.7812C15.1719 52.75 15.1484 52.7187 15.1172 52.6875C15.0703 52.6406 15 52.5469 14.9062 52.4062C14.8125 52.2656 14.7031 52.0937 14.5781 51.8906C14.1094 51.0937 13.875 50.3203 13.875 49.5703C13.875 48.8672 14.0859 48.2187 14.5078 47.625C14.9141 47.0312 15.5703 46.6016 16.4766 46.3359C17.1484 46.1484 18.0859 46.0547 19.2891 46.0547L22.3359 46.0547C22.4453 46.0547 22.5391 46.0547 22.6172 46.0547C22.6953 46.0391 22.7656 46.0156 22.8281 45.9844C22.875 45.9375 22.9141 45.9062 22.9453 45.8906C22.9766 45.875 23.0078 45.8281 23.0391 45.75C23.0703 45.6562 23.0937 45.5937 23.1094 45.5625C23.1094 45.5156 23.125 45.4141 23.1562 45.2578C23.1875 45.1016 23.2109 44.9844 23.2266 44.9062C23.2578 44.6875 23.4062 44.5781 23.6719 44.5781C23.9844 44.5781 24.1406 44.6953 24.1406 44.9297C24.1406 44.9609 24.125 45.0625 24.0937 45.2344C24.0781 45.4062 24.0547 45.6484 24.0234 45.9609C24.0078 46.2734 24 46.6016 24 46.9453C24 47.3047 24.0078 47.6406 24.0234 47.9531C24.0547 48.25 24.0781 48.4922 24.0937 48.6797C24.125 48.8516 24.1406 48.9531 24.1406 48.9844C24.1406 49.0781 24.1094 49.1719 24.0469 49.2656C23.9844 49.3437 23.8828 49.3828 23.7422 49.3828C23.5234 49.3828 23.3906 49.3359 23.3437 49.2422C23.2969 49.1328 23.2187 48.8047 23.1094 48.2578C23.0625 47.9297 22.8437 47.7656 22.4531 47.7656L19.125 47.7656C17.375 47.7656 16.2109 48.0937 15.6328 48.75C15.2734 49.2031 15.0937 49.7031 15.0937 50.25C15.0937 50.7344 15.2266 51.2187 15.4922 51.7031C15.7578 52.1875 15.9922 52.4297 16.1953 52.4297L16.2656 52.4062C16.3125 52.4062 16.3828 52.3984 16.4766 52.3828C16.5703 52.3672 16.6797 52.3516 16.8047 52.3359C16.9297 52.3203 17.0859 52.3125 17.2734 52.3125C17.4453 52.2969 17.625 52.2891 17.8125 52.2891L22.4297 52.2891C22.4453 52.2891 22.4766 52.2969 22.5234 52.3125C22.5703 52.3125 22.6094 52.3125 22.6406 52.3125L22.6641 52.3125C22.9297 52.3125 23.0859 52.0391 23.1328 51.4922C23.1484 51.3516 23.1641 51.2344 23.1797 51.1406C23.2266 50.8281 23.3828 50.6719 23.6484 50.6719C23.9766 50.6719 24.1406 50.7734 24.1406 50.9766C24.1406 50.9922 24.1328 51.0469 24.1172 51.1406C24.1172 51.2187 24.1094 51.3281 24.0937 51.4687C24.0781 51.6094 24.0625 51.7656 24.0469 51.9375C24.0312 52.1094 24.0156 52.3125 24 52.5469C24 52.7812 24 53.0078 24 53.2266C24 53.4453 24 53.6719 24 53.9062C24.0156 54.1406 24.0312 54.3437 24.0469 54.5156C24.0625 54.6875 24.0781 54.8437 24.0937 54.9844C24.1094 55.125 24.125 55.2344 24.1406 55.3125L24.1406 55.4531C24.1406 55.6719 23.9687 55.7812 23.625 55.7812C23.4062 55.7812 23.2578 55.4844 23.1797 54.8906C23.1484 54.7187 23.125 54.5859 23.1094 54.4922C23.0625 54.2266 22.9766 54.0547 22.8516 53.9766C22.7266 53.8984 22.5078 53.8594 22.1953 53.8594L17.7656 53.8594C16.7656 53.8594 16.0703 54.1172 15.6797 54.6328C15.2891 55.1484 15.0937 55.7109 15.0937 56.3203C15.0937 56.7734 15.2031 57.1641 15.4219 57.4922C15.625 57.8203 15.8281 58.0391 16.0312 58.1484C16.1875 58.2109 16.3984 58.2422 16.6641 58.2422L22.4297 58.2422C22.5078 58.2422 22.5781 58.2422 22.6406 58.2422C22.6875 58.2266 22.7344 58.2187 22.7812 58.2187C22.8125 58.2031 22.8516 58.1875 22.8984 58.1719C22.9297 58.1406 22.9609 58.1172 22.9922 58.1016C23.0078 58.0859 23.0234 58.0547 23.0391 58.0078C23.0547 57.9453 23.0703 57.8984 23.0859 57.8672C23.1016 57.8359 23.1172 57.7812 23.1328 57.7031C23.1484 57.6094 23.1641 57.5391 23.1797 57.4922C23.1797 57.4453 23.1875 57.3672 23.2031 57.2578C23.2187 57.1328 23.2344 57.0312 23.25 56.9531C23.2812 56.7344 23.4531 56.625 23.7656 56.625C24.0156 56.625 24.1406 56.7266 24.1406 56.9297L24.0937 57.2344C24.0781 57.4219 24.0547 57.6797 24.0234 58.0078C24.0078 58.3203 24 58.6406 24 58.9687C24 59.2812 24.0078 59.5703 24.0234 59.8359C24.0391 60.1016 24.0547 60.3125 24.0703 60.4687C24.0859 60.6094 24.0937 60.6953 24.0937 60.7266C24.0937 60.9453 23.9375 61.0547 23.625 61.0547C23.4531 61.0547 23.3359 60.9922 23.2734 60.8672C23.2109 60.7266 23.1797 60.5781 23.1797 60.4219C23.1797 60.2656 23.1328 60.1172 23.0391 59.9766C22.9453 59.8203 22.7891 59.7344 22.5703 59.7187L16.6172 59.7187C16.4141 59.7187 16.2656 59.7578 16.1719 59.8359C16.0781 59.8984 15.9062 60.0937 15.6562 60.4219C15.5781 60.5312 15.5156 60.6172 15.4687 60.6797C15.375 60.8203 15.2812 60.8906 15.1875 60.8906C15.1094 60.8906 15.0391 60.8516 14.9766 60.7734C14.8984 60.6953 14.7422 60.4609 14.5078 60.0703C14.2422 59.6484 14.0078 59.2734 13.8047 58.9453C13.6641 58.6797 13.5937 58.5312 13.5937 58.5C13.5937 58.3594 13.6875 58.2891 13.875 58.2891L14.7891 58.2891C14.8828 58.2891 14.9297 58.2578 14.9297 58.1953ZM19.0547 43.7109C17.4297 43.7109 16.125 43.2812 15.1406 42.4219C14.1562 41.5625 13.6641 40.5156 13.6641 39.2812C13.6641 38.4844 13.8828 37.7187 14.3203 36.9844C14.7578 36.25 15.3047 35.6406 15.9609 35.1562C16.1172 35.0312 16.2891 34.9687 16.4766 34.9687L16.5234 34.9687C16.6641 34.9687 16.7891 35.0078 16.8984 35.0859C17.0078 35.1641 17.1094 35.2891 17.2031 35.4609C17.2812 35.6328 17.3437 35.7812 17.3906 35.9062C17.4375 36.0312 17.5 36.2187 17.5781 36.4687C17.6562 36.7031 17.7031 36.8516 17.7187 36.9141C18.8437 40.1797 19.4297 41.8516 19.4766 41.9297C19.5078 41.9922 19.5547 42.0234 19.6172 42.0234C19.7109 42.0234 19.8672 42 20.0859 41.9531C20.3047 41.9062 20.5937 41.8047 20.9531 41.6484C21.3125 41.4766 21.6484 41.2734 21.9609 41.0391C22.2578 40.7891 22.5234 40.4375 22.7578 39.9844C22.9766 39.5312 23.0859 39.0234 23.0859 38.4609C23.0859 37.3672 22.6953 36.4141 21.9141 35.6016C21.6953 35.3828 21.5859 35.2031 21.5859 35.0625C21.5859 34.7969 21.7031 34.6641 21.9375 34.6641C22.0312 34.6641 22.1562 34.7266 22.3125 34.8516C22.9687 35.3516 23.4922 35.9766 23.8828 36.7266C24.2578 37.4766 24.4453 38.2656 24.4453 39.0937C24.4453 39.625 24.3516 40.1484 24.1641 40.6641C23.9766 41.1641 23.6875 41.6562 23.2969 42.1406C22.9062 42.6094 22.3437 42.9922 21.6094 43.2891C20.875 43.5703 20.0234 43.7109 19.0547 43.7109ZM16.5703 37.2891C16.3672 37.2891 16.0547 37.5625 15.6328 38.1094C15.1953 38.6562 14.9766 39.2266 14.9766 39.8203C14.9766 40.5234 15.2812 41.0859 15.8906 41.5078C16.5 41.9141 17.3359 42.1172 18.3984 42.1172C18.5234 42.1172 18.5859 42.0781 18.5859 42C18.5859 41.9687 18.3047 41.2266 17.7422 39.7734C17.1641 38.3047 16.8672 37.5469 16.8516 37.5C16.7734 37.3594 16.6797 37.2891 16.5703 37.2891ZM23.6719 28.9922C23.9844 28.9922 24.1406 29.0859 24.1406 29.2734C24.1406 29.2891 24.1328 29.3437 24.1172 29.4375C24.1172 29.5156 24.1094 29.625 24.0937 29.7656C24.0781 29.9062 24.0625 30.0625 24.0469 30.2344C24.0312 30.4062 24.0156 30.6094 24 30.8437C24 31.0781 24 31.3047 24 31.5234C24 31.7422 24 31.9609 24 32.1797C24.0156 32.3984 24.0234 32.5937 24.0234 32.7656C24.0391 32.9375 24.0547 33.0937 24.0703 33.2344C24.0859 33.3594 24.0937 33.4609 24.0937 33.5391C24.1094 33.6172 24.1172 33.6641 24.1172 33.6797C24.1172 33.9141 23.9766 34.0312 23.6953 34.0312L23.625 34.0312C23.4219 34.0312 23.2969 33.9844 23.25 33.8906C23.1875 33.7812 23.1328 33.5 23.0859 33.0469C23.0547 32.7656 22.9687 32.5859 22.8281 32.5078C22.6719 32.4141 22.4531 32.3672 22.1719 32.3672L9.96094 32.3672C9.91406 32.3672 9.875 32.375 9.84375 32.3906C9.79687 32.3906 9.75781 32.3984 9.72656 32.4141C9.69531 32.4297 9.67187 32.4453 9.65625 32.4609C9.625 32.4609 9.60156 32.4844 9.58594 32.5312C9.55469 32.5625 9.53125 32.5937 9.51562 32.625C9.5 32.6406 9.47656 32.6875 9.44531 32.7656C9.39844 32.8281 9.36719 32.875 9.35156 32.9062C9.25781 33.0625 9.16406 33.2344 9.07031 33.4219C8.96094 33.5937 8.88281 33.7187 8.83594 33.7969C8.78906 33.8594 8.74219 33.9297 8.69531 34.0078C8.63281 34.0859 8.58594 34.1406 8.55469 34.1719C8.50781 34.1875 8.46094 34.1953 8.41406 34.1953L8.39062 34.1953C8.3125 34.1953 8.11719 33.8984 7.80469 33.3047C7.44531 32.5703 7.09375 31.8828 6.75 31.2422C6.6875 31.1484 6.65625 31.0469 6.65625 30.9375C6.65625 30.7187 6.80469 30.6094 7.10156 30.6094L22.2891 30.6094C22.3828 30.6094 22.4609 30.6094 22.5234 30.6094C22.5859 30.5937 22.6484 30.5781 22.7109 30.5625C22.7578 30.5469 22.7969 30.5312 22.8281 30.5156C22.8594 30.5 22.8906 30.4687 22.9219 30.4219C22.9531 30.3594 22.9766 30.3203 22.9922 30.3047C23.0078 30.2734 23.0312 30.2187 23.0625 30.1406C23.0781 30.0469 23.0937 29.9844 23.1094 29.9531C23.1094 29.9062 23.1172 29.8203 23.1328 29.6953C23.1484 29.5547 23.1641 29.4531 23.1797 29.3906C23.2266 29.125 23.3906 28.9922 23.6719 28.9922ZM21.0937 26.4844C20.2812 26.4844 19.5234 26.4844 18.8203 26.4844C18.1172 26.4844 17.5703 26.4844 17.1797 26.4844C16.7734 26.4687 16.5312 26.4609 16.4531 26.4609C16.2812 26.4609 16.1641 26.5234 16.1016 26.6484C16.0234 26.7578 15.8125 27.2344 15.4687 28.0781C15.3906 28.2812 15.2891 28.3828 15.1641 28.3828C15.1172 28.3828 15.0703 28.375 15.0234 28.3594C14.9766 28.3281 14.9375 28.2891 14.9062 28.2422C14.875 28.1797 14.8516 28.125 14.8359 28.0781C14.8047 28.0312 14.7734 27.9687 14.7422 27.8906C14.7109 27.8125 14.6875 27.7578 14.6719 27.7266C13.8281 25.9766 13.4062 25.0937 13.4062 25.0781L13.4062 25.0547C13.4062 24.8359 13.5391 24.7266 13.8047 24.7266L14.5781 24.75C15.0937 24.7812 15.7891 24.8125 16.6641 24.8437C17.5234 24.8594 18.3828 24.8672 19.2422 24.8672L20.0391 24.8672C21.5234 24.8672 22.3984 24.8437 22.6641 24.7969C22.9297 24.75 23.0781 24.5937 23.1094 24.3281C23.1719 23.8594 23.2266 23.5625 23.2734 23.4375C23.3203 23.3125 23.4375 23.25 23.625 23.25C23.9687 23.25 24.1406 23.3437 24.1406 23.5312C24.1406 23.5469 24.1328 23.5937 24.1172 23.6719C24.1172 23.75 24.1094 23.8594 24.0937 24C24.0781 24.1406 24.0625 24.2969 24.0469 24.4687C24.0312 24.6406 24.0156 24.8437 24 25.0781C24 25.2969 24 25.5156 24 25.7344C24 25.9531 24 26.1797 24 26.4141C24.0156 26.6484 24.0312 26.8516 24.0469 27.0234C24.0625 27.1797 24.0781 27.3281 24.0937 27.4687C24.1094 27.6094 24.1172 27.7187 24.1172 27.7969C24.1328 27.875 24.1406 27.9219 24.1406 27.9375C24.1406 28.1875 24.0078 28.3125 23.7422 28.3125C23.4766 28.3125 23.3203 28.2656 23.2734 28.1719C23.2266 28.0625 23.1641 27.7109 23.0859 27.1172C23.0391 26.8359 22.9531 26.6641 22.8281 26.6016C22.6875 26.5234 22.4844 26.4844 22.2187 26.4844L21.0937 26.4844ZM9.16406 26.25C8.85156 26.25 8.58593 26.1328 8.36718 25.8984C8.14843 25.6641 8.03906 25.3906 8.03906 25.0781C8.03906 24.7656 8.14843 24.5 8.36718 24.2812C8.58593 24.0469 8.84375 23.9297 9.14062 23.9297C9.46875 23.9297 9.74218 24.0469 9.96093 24.2812C10.1797 24.5 10.2891 24.7734 10.2891 25.1016C10.2891 25.4297 10.1875 25.7031 9.98437 25.9219C9.76562 26.1406 9.49218 26.25 9.16406 26.25ZM14.9531 19.5469C15.0156 19.5469 15.0469 19.5234 15.0469 19.4766L15.0469 19.4531C15.0469 19.4375 15 19.3828 14.9062 19.2891C14.8125 19.1797 14.6953 19.0312 14.5547 18.8437C14.4141 18.6562 14.2734 18.4375 14.1328 18.1875C13.9922 17.9375 13.875 17.6328 13.7812 17.2734C13.6719 16.9141 13.6172 16.5391 13.6172 16.1484L13.6172 16.1016C13.6172 15.7734 13.6641 15.4531 13.7578 15.1406C13.8359 14.8125 13.9922 14.4687 14.2266 14.1094C14.4453 13.7344 14.7969 13.4219 15.2812 13.1719C15.7656 12.9219 16.3594 12.7656 17.0625 12.7031C17.3281 12.6719 17.7344 12.6562 18.2812 12.6562C18.3437 12.6562 18.5 12.6562 18.75 12.6562C18.9844 12.6562 19.4141 12.6641 20.0391 12.6797C20.6641 12.6797 21.4609 12.6797 22.4297 12.6797L22.4766 12.6797C22.5547 12.6797 22.6328 12.6719 22.7109 12.6562C22.7734 12.6406 22.8281 12.6328 22.875 12.6328C22.9062 12.6172 22.9453 12.5859 22.9922 12.5391C23.0234 12.4922 23.0469 12.4609 23.0625 12.4453C23.0781 12.4141 23.1016 12.3594 23.1328 12.2812C23.1484 12.1875 23.1562 12.125 23.1562 12.0937C23.1562 12.0469 23.1641 11.9609 23.1797 11.8359C23.1953 11.6953 23.2109 11.5937 23.2266 11.5312C23.2578 11.2969 23.4062 11.1797 23.6719 11.1797C23.9844 11.1797 24.1406 11.3047 24.1406 11.5547C24.1406 11.6016 24.125 11.7109 24.0937 11.8828C24.0781 12.0547 24.0547 12.2969 24.0234 12.6094C24.0078 12.9062 24 13.2266 24 13.5703C24 13.7734 24 13.9766 24 14.1797C24.0156 14.3828 24.0312 14.5625 24.0469 14.7187C24.0625 14.8594 24.0781 14.9922 24.0937 15.1172C24.1094 15.2422 24.125 15.3437 24.1406 15.4219L24.1406 15.5391C24.1406 15.7578 23.9844 15.8672 23.6719 15.8672C23.5 15.8672 23.3906 15.8203 23.3437 15.7266C23.2969 15.6328 23.2422 15.3828 23.1797 14.9766C23.1484 14.8359 23.125 14.7187 23.1094 14.625C23.0781 14.4687 23.0312 14.3672 22.9687 14.3203C22.8906 14.2578 22.75 14.2266 22.5469 14.2266L18.8203 14.2266C17.6484 14.2266 16.7812 14.3359 16.2187 14.5547C15.6875 14.7891 15.3203 15.1406 15.1172 15.6094C14.8984 16.0781 14.7891 16.5234 14.7891 16.9453C14.7891 17.5547 14.9766 18.1016 15.3516 18.5859C15.7266 19.0703 16.0547 19.3437 16.3359 19.4062C16.4609 19.4375 16.5703 19.4531 16.6641 19.4531L22.3359 19.4531L22.4062 19.4531C22.8125 19.4531 23.0391 19.2734 23.0859 18.9141C23.1953 18.2109 23.2812 17.8281 23.3437 17.7656C23.4219 17.6719 23.5547 17.625 23.7422 17.625C24.0234 17.625 24.1641 17.7266 24.1641 17.9297C24.1641 17.9453 24.1562 18 24.1406 18.0937C24.1406 18.1719 24.1328 18.2812 24.1172 18.4219C24.1016 18.5625 24.0781 18.7187 24.0469 18.8906C24.0312 19.0625 24.0156 19.2656 24 19.5C24 19.7187 24 19.9375 24 20.1562C24 20.375 24 20.5937 24 20.8125C24.0156 21.0312 24.0312 21.2266 24.0469 21.3984C24.0625 21.5547 24.0781 21.6953 24.0937 21.8203C24.1094 21.9453 24.1172 22.0469 24.1172 22.125C24.1328 22.2031 24.1406 22.25 24.1406 22.2656C24.1406 22.5312 24 22.6641 23.7187 22.6641C23.5 22.6641 23.3672 22.6172 23.3203 22.5234C23.2578 22.4141 23.1953 22.1484 23.1328 21.7266C23.0859 21.4453 23 21.2734 22.875 21.2109C22.75 21.1328 22.5625 21.0937 22.3125 21.0937L16.5937 21.0937C16.3125 21.0937 16.125 21.1328 16.0312 21.2109C15.9219 21.2891 15.6562 21.6094 15.2344 22.1719C15.1406 22.2656 15.0625 22.3125 15 22.3125L14.9766 22.3125C14.8984 22.3125 14.8281 22.2578 14.7656 22.1484C14.6875 22.0391 14.5 21.7031 14.2031 21.1406C13.9687 20.7031 13.7734 20.3359 13.6172 20.0391C13.5547 19.9453 13.5234 19.8672 13.5234 19.8047C13.5234 19.6172 13.6406 19.5234 13.875 19.5234L14.8125 19.5234C14.8281 19.5234 14.8594 19.5312 14.9062 19.5469L14.9531 19.5469ZM19.0547 10.4297C17.4297 10.4297 16.125 10 15.1406 9.14062C14.1562 8.28125 13.6641 7.23437 13.6641 6C13.6641 5.20312 13.8828 4.4375 14.3203 3.70312C14.7578 2.96875 15.3047 2.35937 15.9609 1.875C16.1172 1.75 16.2891 1.6875 16.4766 1.6875L16.5234 1.6875C16.6641 1.6875 16.7891 1.72656 16.8984 1.80469C17.0078 1.88281 17.1094 2.00781 17.2031 2.17969C17.2812 2.35156 17.3437 2.5 17.3906 2.625C17.4375 2.75 17.5 2.9375 17.5781 3.1875C17.6562 3.42187 17.7031 3.57031 17.7187 3.63281C18.8437 6.89844 19.4297 8.57031 19.4766 8.64844C19.5078 8.71094 19.5547 8.74219 19.6172 8.74219C19.7109 8.74219 19.8672 8.71875 20.0859 8.67187C20.3047 8.625 20.5937 8.52344 20.9531 8.36719C21.3125 8.19531 21.6484 7.99219 21.9609 7.75781C22.2578 7.50781 22.5234 7.15625 22.7578 6.70312C22.9766 6.25 23.0859 5.74219 23.0859 5.17969C23.0859 4.08594 22.6953 3.13281 21.9141 2.32031C21.6953 2.10156 21.5859 1.92187 21.5859 1.78125C21.5859 1.51562 21.7031 1.38281 21.9375 1.38281C22.0312 1.38281 22.1562 1.44531 22.3125 1.57031C22.9687 2.07031 23.4922 2.69531 23.8828 3.44531C24.2578 4.19531 24.4453 4.98437 24.4453 5.8125C24.4453 6.34375 24.3516 6.86719 24.1641 7.38281C23.9766 7.88281 23.6875 8.375 23.2969 8.85937C22.9062 9.32812 22.3437 9.71094 21.6094 10.0078C20.875 10.2891 20.0234 10.4297 19.0547 10.4297ZM16.5703 4.00781C16.3672 4.00781 16.0547 4.28125 15.6328 4.82812C15.1953 5.375 14.9766 5.94531 14.9766 6.53906C14.9766 7.24219 15.2812 7.80469 15.8906 8.22656C16.5 8.63281 17.3359 8.83594 18.3984 8.83594C18.5234 8.83594 18.5859 8.79687 18.5859 8.71875C18.5859 8.6875 18.3047 7.94531 17.7422 6.49219C17.1641 5.02344 16.8672 4.26562 16.8516 4.21875C16.7734 4.07812 16.6797 4.00781 16.5703 4.00781Z" fill="white"/>
<path d="M42 1C42 0.447715 41.5523 2.38503e-08 41 0C40.4477 -2.38503e-08 40 0.447715 40 1L42 1ZM40.2929 84.7071C40.6834 85.0976 41.3166 85.0976 41.7071 84.7071L48.0711 78.3431C48.4616 77.9526 48.4616 77.3195 48.0711 76.9289C47.6805 76.5384 47.0474 76.5384 46.6569 76.9289L41 82.5858L35.3431 76.9289C34.9526 76.5384 34.3195 76.5384 33.9289 76.9289C33.5384 77.3195 33.5384 77.9526 33.9289 78.3431L40.2929 84.7071ZM40 1L40 84L42 84L42 1L40 1Z" fill="white"/>
</svg>
