<?xml version="1.0" standalone="no"?>
<!DOCTYPE svg PUBLIC "-//W3C//DTD SVG 20010904//EN"
 "http://www.w3.org/TR/2001/REC-SVG-20010904/DTD/svg10.dtd">
<svg version="1.0" xmlns="http://www.w3.org/2000/svg"
 width="512.000000pt" height="512.000000pt" viewBox="0 0 512.000000 512.000000"
 preserveAspectRatio="xMidYMid meet">
<metadata>
Created by potrace 1.14, written by Peter Selinger 2001-2017
</metadata>
<g transform="translate(0.000000,512.000000) scale(0.100000,-0.100000)"
fill="#000000" stroke="none">
<path d="M707 5109 c-134 -31 -238 -131 -273 -261 -21 -79 -21 -4497 0 -4576
30 -111 92 -182 206 -236 l65 -31 805 0 c835 0 892 2 1187 45 953 139 1574
632 1848 1465 107 323 155 670 155 1109 0 313 -26 556 -84 801 -111 462 -352
867 -679 1142 -390 327 -880 498 -1552 543 -184 12 -1625 11 -1678 -1z m1783
-208 c423 -47 660 -111 945 -251 204 -101 319 -183 475 -340 138 -138 225
-253 312 -418 133 -248 210 -503 255 -839 21 -163 24 -657 5 -843 -26 -246
-76 -484 -142 -675 -45 -131 -180 -396 -258 -504 -294 -413 -740 -667 -1352
-770 -298 -51 -393 -55 -1215 -55 -698 -1 -773 1 -800 16 -41 22 -70 56 -84
97 -16 49 -16 4433 0 4482 20 57 61 94 124 110 45 12 1623 3 1735 -10z"/>
<path d="M1470 4323 c-19 -10 -40 -29 -47 -43 -10 -19 -13 -173 -13 -662 l0
-638 29 -32 c25 -28 36 -33 72 -32 35 1 48 8 71 33 l28 31 0 576 0 576 353 -5
c375 -4 444 -11 627 -63 299 -86 548 -291 693 -571 142 -275 207 -680 178
-1100 -34 -486 -159 -823 -390 -1054 -163 -162 -381 -269 -641 -313 -132 -23
-410 -38 -630 -34 l-185 3 -5 582 c-5 569 -5 583 -25 603 -33 33 -78 41 -117
22 -18 -10 -38 -28 -45 -42 -10 -19 -13 -173 -13 -662 l0 -638 29 -32 29 -33
309 -3 c654 -7 941 49 1238 242 344 224 544 580 626 1116 19 122 23 189 23
420 1 290 -6 369 -50 583 -128 611 -517 1016 -1092 1137 -163 34 -253 40 -642
46 -350 5 -377 4 -410 -13z"/>
<path d="M1468 2652 c-63 -32 -76 -102 -29 -154 25 -28 36 -33 72 -32 83 3
129 98 77 159 -33 37 -79 47 -120 27z"/>
</g>
</svg>
