<svg width="370" height="370" viewBox="0 0 370 370" fill="none" xmlns="http://www.w3.org/2000/svg">
<path d="M163.449 16.8224C169.068 -5.60746 200.909 -5.60746 206.551 16.8224L208.193 23.4357C209.154 27.279 211.125 30.7952 213.903 33.6195C216.681 36.4438 220.164 38.4732 223.991 39.4972C227.818 40.5211 231.849 40.5023 235.666 39.4428C239.484 38.3832 242.948 36.3214 245.699 33.4713L250.44 28.5923C266.511 11.9664 294.097 27.8986 287.738 50.1203L285.888 56.6874C284.799 60.4947 284.748 64.5239 285.741 68.3574C286.734 72.191 288.734 75.6891 291.534 78.4892C294.334 81.2894 297.832 83.2895 301.666 84.2822C305.499 85.2749 309.528 85.2241 313.336 84.1351L319.88 82.262C342.078 75.9031 358.034 103.489 341.408 119.56L336.529 124.301C333.679 127.052 331.617 130.516 330.557 134.334C329.498 138.151 329.479 142.182 330.503 146.009C331.527 149.836 333.556 153.319 336.381 156.097C339.205 158.875 342.721 160.846 346.564 161.807L353.178 163.449C375.607 169.068 375.607 200.909 353.178 206.551L346.564 208.193C342.721 209.154 339.205 211.125 336.381 213.903C333.556 216.681 331.527 220.164 330.503 223.991C329.479 227.818 329.498 231.849 330.557 235.666C331.617 239.484 333.679 242.948 336.529 245.699L341.408 250.44C358.034 266.511 342.101 294.097 319.88 287.738L313.313 285.888C309.505 284.799 305.476 284.748 301.643 285.741C297.809 286.734 294.311 288.734 291.511 291.534C288.711 294.334 286.711 297.832 285.718 301.666C284.725 305.499 284.776 309.528 285.865 313.336L287.738 319.88C294.097 342.078 266.511 358.034 250.44 341.408L245.699 336.529C242.948 333.679 239.484 331.617 235.666 330.557C231.849 329.498 227.818 329.479 223.991 330.503C220.164 331.527 216.681 333.556 213.903 336.381C211.125 339.205 209.154 342.721 208.193 346.564L206.551 353.178C200.932 375.607 169.091 375.607 163.449 353.178L161.807 346.564C160.846 342.721 158.875 339.205 156.097 336.381C153.319 333.556 149.836 331.527 146.009 330.503C142.182 329.479 138.151 329.498 134.334 330.557C130.516 331.617 127.052 333.679 124.301 336.529L119.56 341.408C103.489 358.034 75.9031 342.101 82.262 319.88L84.1119 313.313C85.1989 309.508 85.2491 305.481 84.2573 301.651C83.2654 297.82 81.2676 294.324 78.4707 291.525C75.6738 288.725 72.1794 286.725 68.3495 285.729C64.5195 284.734 60.4932 284.781 56.6874 285.865L50.1203 287.738C27.9217 294.097 11.9664 266.511 28.5923 250.44L33.4713 245.699C36.3214 242.948 38.3832 239.484 39.4428 235.666C40.5023 231.849 40.5211 227.818 39.4972 223.991C38.4732 220.164 36.4438 216.681 33.6195 213.903C30.7952 211.125 27.279 209.154 23.4357 208.193L16.8224 206.551C-5.60746 200.932 -5.60746 169.091 16.8224 163.449L23.4357 161.807C27.279 160.846 30.7952 158.875 33.6195 156.097C36.4438 153.319 38.4732 149.836 39.4972 146.009C40.5211 142.182 40.5023 138.151 39.4428 134.334C38.3832 130.516 36.3214 127.052 33.4713 124.301L28.5923 119.56C11.9664 103.489 27.8986 75.9031 50.1203 82.262L56.6874 84.1119C60.4923 85.1989 64.5186 85.2491 68.3494 84.2573C72.1801 83.2654 75.6762 81.2676 78.4754 78.4707C81.2747 75.6738 83.2755 72.1794 84.2706 68.3495C85.2656 64.5195 85.2189 60.4932 84.1351 56.6874L82.262 50.1203C75.9031 27.9217 103.489 11.9664 119.56 28.5923L124.301 33.4713C127.052 36.3214 130.516 38.3832 134.334 39.4428C138.151 40.5023 142.182 40.5211 146.009 39.4972C149.836 38.4732 153.319 36.4438 156.097 33.6195C158.875 30.7952 160.846 27.279 161.807 23.4357L163.449 16.8224V16.8224ZM299.993 196.562H190.781L125.249 283.946C141.941 294.028 160.913 299.722 180.399 300.498C199.884 301.275 219.249 297.108 236.69 288.386C254.132 279.664 269.083 266.671 280.151 250.615C291.22 234.56 298.046 215.965 299.993 196.562ZM299.993 173.438C298.046 154.035 291.22 135.44 280.151 119.385C269.083 103.329 254.132 90.3359 236.69 81.6139C219.249 72.8919 199.884 68.7252 180.399 69.5016C160.913 70.278 141.941 75.9723 125.249 86.0543L190.781 173.461H299.993V173.438ZM116.739 91.7427C116.046 92.2283 115.398 92.737 114.728 93.2457L116.739 91.7427ZM106.773 99.9516C94.9884 110.761 85.5824 123.905 79.1531 138.547C72.7238 153.189 69.4121 169.009 69.4285 185C69.4285 218.645 83.8113 248.937 106.773 270.048L170.548 185L106.773 99.9516ZM114.728 276.754L116.739 278.257L114.728 276.754Z" fill="#707070"/>
</svg>
