<svg width="2412" height="2402" viewBox="0 0 2412 2402" fill="none" xmlns="http://www.w3.org/2000/svg">
<path d="M1124.92 2.9173C869.118 21.5169 636.261 114.515 436.496 278.047C378.282 325.633 285.525 422.737 244.461 478.777C240.597 484.091 255.331 470.565 277.313 448.583C320.792 404.862 359.199 371.769 403.887 338.676C721.771 103.645 1143.52 61.6149 1501.75 229.011C1795.72 366.213 2013.84 630.956 2092.1 944.975C2103.21 989.662 2116.5 1058.02 2121.81 1098.36C2127.85 1144.26 2127.85 1274.21 2121.81 1318.17C2101.28 1465.28 2055.87 1590.41 1981.23 1705.87C1876.64 1867.47 1726.87 1990.9 1548.85 2062.16C1515.51 2075.44 1458.75 2094.04 1437.98 2098.63C1414.06 2103.95 1426.86 2103.71 1458.51 2098.39C1790.64 2043.08 2073.5 1833.89 2224.71 1531.71C2282.45 1416.49 2318.92 1285.08 2330.27 1152.71C2334.38 1105.61 2333.9 1012.13 2329.07 966.715C2310.47 785.067 2249.59 619.361 2147.42 471.531C2085.82 382.156 2000.8 293.748 1916.01 231.185C1694.02 66.929 1402.95 -17.1316 1124.92 2.9173Z" fill="#242424"/>
<path d="M969.121 163.791C720.08 181.666 483.841 289.882 306.058 467.907C156.053 618.153 56.5331 806.323 17.6431 1013.82C-25.3534 1243.05 11.1211 1502.24 117.405 1724.95C177.551 1851.28 255.09 1960.46 354.368 2059.74C509.687 2215.06 701.722 2324 914.53 2377.39C951.488 2386.56 1019.61 2399.37 1041.59 2401.3C1054.63 2402.51 1053.42 2402.02 1029.51 2395.74C692.784 2309.99 423.694 2078.83 291.081 1761.67C214.267 1577.6 190.354 1370.59 222.963 1172.03C249.051 1013.82 311.372 860.673 402.679 729.992C489.397 605.834 610.415 492.545 738.196 415.49C844.721 351.478 970.329 309.207 1104.39 292.298C1156.32 285.776 1267.44 286.501 1319.86 293.506C1432.9 308.965 1526.14 337.468 1623.49 386.745C1710.21 430.708 1786.05 485.299 1855.62 553.9C1870.36 568.393 1880.98 578.538 1879.54 576.606C1862.63 552.934 1814.32 498.101 1784.36 468.149C1569.86 253.166 1272.51 142.293 969.121 163.791Z" fill="#242424"/>
<path d="M1431.7 350.271C1431.7 350.754 1437.98 355.585 1445.71 360.899C1512.13 407.761 1594.02 487.232 1647.4 556.799L1660.93 574.191L1664.79 560.422C1666.97 552.693 1669.87 542.064 1671.32 536.75C1673.01 531.436 1674.46 526.605 1674.7 526.122C1675.18 525.639 1683.39 530.953 1693.06 538.2C1818.91 629.265 1919.15 759.221 1977.12 906.327C1986.78 930.965 2004.18 982.658 2004.18 987.247C2004.18 988.938 1833.88 989.663 1478.8 989.663C1189.9 989.663 953.42 990.387 953.42 991.353C953.42 992.561 960.908 1005.85 969.846 1021.06L986.271 1048.84L1532.91 1049.57L2079.54 1050.05L2077.85 1039.91C2076.88 1034.11 2071.81 1012.61 2066.74 992.078C1993.31 694.968 1769.15 456.313 1475.17 362.107C1443.53 351.962 1431.7 348.822 1431.7 350.271Z" fill="#242424"/>
<path d="M600.27 561.389C445.676 707.287 352.195 893.283 326.348 1106.82C321.276 1149.81 319.343 1231.22 322.725 1271.07C327.315 1326.39 339.392 1397.89 350.021 1432.91C352.678 1442.33 352.919 1442.09 356.059 1414.8C366.688 1321.07 389.877 1233.39 430.941 1132.9C431.666 1130.97 424.661 1131.94 409.926 1135.8C397.848 1139.18 386.737 1141.84 385.287 1141.84C380.215 1141.84 390.118 1070.34 402.679 1015.99C410.892 980.242 432.39 914.781 446.159 882.896C486.257 791.589 534.567 717.674 606.067 638.444L618.869 624.434L881.921 1080C1026.61 1330.49 1145.7 1534.85 1146.9 1534.37C1147.87 1533.64 1155.84 1520.6 1164.78 1505.38C1178.79 1480.74 1180.24 1476.88 1177.82 1472.04C1176.13 1469.15 1103.91 1343.78 1017.43 1193.78C930.715 1043.53 809.696 833.861 748.342 727.577C686.987 621.294 635.778 533.61 634.812 532.402C633.846 531.436 618.386 544.48 600.27 561.389Z" fill="#242424"/>
<path d="M2316.02 734.823C2315.78 736.031 2319.16 747.626 2323.03 760.187C2339.94 813.57 2355.88 895.215 2363.12 965.507C2367.71 1009.71 2368.2 1108.26 2364.09 1155.13C2323.99 1622.53 1994.27 2006.6 1538.95 2116.51C1456.09 2136.56 1384.35 2144.77 1292.8 2145.25C1223.96 2145.49 1190.14 2143.32 1129.75 2134.38C1030.23 2120.13 907.283 2083.17 816.942 2040.9C589.399 1934.38 416.93 1741.38 336.01 1502.96C314.995 1441.85 302.917 1389.43 293.738 1319.87C286.492 1267.21 285.767 1156.09 292.289 1104.4C298.086 1059.71 307.024 1012.61 316.927 974.203C321.517 956.811 324.899 942.559 324.415 942.076C322.966 940.627 294.946 1018.17 286.008 1048.84C256.297 1149.09 242.77 1242.57 243.012 1347.16C243.254 1471.08 261.128 1577.36 300.985 1692.58C386.253 1939.93 569.109 2151.29 803.657 2274C919.119 2334.39 1041.83 2371.83 1175.65 2387.05C1223.72 2392.6 1312.37 2394.29 1358.26 2390.91C1516.48 2378.59 1654.41 2338.01 1787.99 2263.86C2102.97 2089.21 2323.27 1787.03 2390.9 1436.54C2404.67 1365.28 2409.99 1314.07 2411.68 1236.05C2414.58 1088.22 2398.15 972.753 2354.43 835.068C2343.32 800.284 2316.02 729.268 2316.02 734.823Z" fill="#242424"/>
<path d="M1318.89 1328.32C1244.49 1457.55 1121.3 1670.84 1045.45 1802.25C969.605 1933.65 907.767 2041.38 908.009 2041.63C908.492 2041.87 917.429 2045.01 928.057 2048.63C1084.58 2100.08 1252.22 2107.33 1412.37 2069.16C1559.24 2034.14 1686.29 1966.99 1804.17 1862.15C1834.61 1834.86 1840.4 1827.85 1827.12 1833.65C1740.88 1871.33 1663.83 1894.76 1581.22 1908.77C1561.17 1912.15 1541.6 1914.81 1537.74 1914.81C1533.87 1914.81 1530.73 1915.54 1530.73 1916.5C1530.97 1917.71 1537.98 1925.92 1546.43 1935.34C1554.89 1944.52 1561.17 1952.98 1560.2 1953.94C1555.85 1958.29 1505.13 1978.82 1468.65 1990.9C1407.06 2011.67 1347.39 2023.99 1278.55 2031C1235.8 2035.1 1137.73 2032.69 1093.52 2026.17C1052.22 2020.13 999.074 2008.53 998.833 2005.88C998.833 2004.67 1116.23 1800.31 1259.95 1551.51C1403.43 1302.72 1521.07 1097.88 1521.07 1096.19C1521.07 1094.25 1511.17 1093.53 1487.74 1093.53H1454.64L1318.89 1328.32Z" fill="#242424"/>
</svg>
