<svg width="42" height="42" viewBox="0 0 42 42" fill="none" xmlns="http://www.w3.org/2000/svg">
<path d="M6.53999 35.2499L11.65 33.1899C12.7133 34.0014 13.8761 34.6736 15.11 35.1899L15.88 40.6199C15.914 40.8602 16.0341 41.08 16.2181 41.2382C16.4021 41.3964 16.6373 41.4823 16.88 41.4799H25.08C25.3226 41.4823 25.5579 41.3964 25.7419 41.2382C25.9259 41.08 26.046 40.8602 26.08 40.6199L26.85 35.1899C28.0855 34.6768 29.2487 34.0044 30.31 33.1899L35.42 35.2499C35.6461 35.3418 35.8981 35.3478 36.1283 35.2667C36.3586 35.1857 36.5512 35.0232 36.67 34.8099L40.77 27.6999C40.8968 27.4891 40.9414 27.2389 40.8953 26.9972C40.8491 26.7555 40.7155 26.5393 40.52 26.3899L36.23 22.9999C36.3171 22.3367 36.3639 21.6688 36.37 20.9999C36.3639 20.3311 36.3171 19.6632 36.23 18.9999L40.56 15.6099M35.46 6.74995L30.35 8.80995C29.2867 7.99842 28.1239 7.32629 26.89 6.80995L26.12 1.37995C26.086 1.13967 25.9659 0.919939 25.7819 0.761712C25.5979 0.603485 25.3626 0.517558 25.12 0.519946H16.9C16.6573 0.517558 16.4221 0.603485 16.2381 0.761712C16.0541 0.919939 15.934 1.13967 15.9 1.37995L15.13 6.80995C13.8945 7.32307 12.7313 7.99542 11.67 8.80995L6.53999 6.74995C6.31384 6.65809 6.0619 6.65212 5.83165 6.73317C5.6014 6.81422 5.40874 6.97668 5.28999 7.18995L1.18999 14.2999C1.0632 14.5108 1.0186 14.761 1.06473 15.0027C1.11085 15.2444 1.24446 15.4606 1.43999 15.6099L5.75999 18.9999C5.67322 19.6632 5.62646 20.3311 5.61999 20.9999C5.62611 21.6688 5.67287 22.3367 5.75999 22.9999L1.43999 26.3899M21 28.1799C19.5799 28.1819 18.1912 27.7628 17.0093 26.9755C15.8275 26.1881 14.9056 25.0681 14.3604 23.7569C13.8151 22.4456 13.6709 21.0022 13.946 19.609C14.2211 18.2158 14.9032 16.9355 15.9059 15.93C16.9086 14.9245 18.187 14.2389 19.5794 13.9599C20.9718 13.6809 22.4157 13.8211 23.7284 14.3627C25.0412 14.9043 26.1638 15.823 26.9544 17.0026C27.745 18.1823 28.168 19.5699 28.17 20.9899V20.9999C28.1713 21.9415 27.9871 22.8741 27.628 23.7445C27.2689 24.615 26.7419 25.4061 26.077 26.0728C25.4122 26.7396 24.6225 27.2688 23.7531 27.6303C22.8837 27.9919 21.9516 28.1786 21.01 28.1799H21Z" stroke="black" stroke-linecap="round" stroke-linejoin="round"/>
</svg>
