<svg version="1.0" xmlns="http://www.w3.org/2000/svg" width="682.667" height="682.667" viewBox="0 0 512 512"><path d="M70.7 1.1C57.3 4.2 46.9 14.2 43.4 27.2c-2.1 7.9-2.1 449.7 0 457.6 3 11.1 9.2 18.2 20.6 23.6l6.5 3.1H151c83.5 0 89.2-.2 118.7-4.5 95.3-13.9 157.4-63.2 184.8-146.5 10.7-32.3 15.5-67 15.5-110.9 0-31.3-2.6-55.6-8.4-80.1-11.1-46.2-35.2-86.7-67.9-114.2-39-32.7-88-49.8-155.2-54.3C220.1-.2 76-.1 70.7 1.1zM249 21.9c42.3 4.7 66 11.1 94.5 25.1 20.4 10.1 31.9 18.3 47.5 34 13.8 13.8 22.5 25.3 31.2 41.8 13.3 24.8 21 50.3 25.5 83.9 2.1 16.3 2.4 65.7.5 84.3-2.6 24.6-7.6 48.4-14.2 67.5-4.5 13.1-18 39.6-25.8 50.4-29.4 41.3-74 66.7-135.2 77-29.8 5.1-39.3 5.5-121.5 5.5-69.8.1-77.3-.1-80-1.6-4.1-2.2-7-5.6-8.4-9.7-1.6-4.9-1.6-443.3 0-448.2 2-5.7 6.1-9.4 12.4-11 4.5-1.2 162.3-.3 173.5 1z"/><path d="M147 79.7c-1.9 1-4 2.9-4.7 4.3-1 1.9-1.3 17.3-1.3 66.2V214l2.9 3.2c2.5 2.8 3.6 3.3 7.2 3.2 3.5-.1 4.8-.8 7.1-3.3l2.8-3.1V98.8l35.3.5c37.5.4 44.4 1.1 62.7 6.3 29.9 8.6 54.8 29.1 69.3 57.1 14.2 27.5 20.7 68 17.8 110-3.4 48.6-15.9 82.3-39 105.4-16.3 16.2-38.1 26.9-64.1 31.3-13.2 2.3-41 3.8-63 3.4l-18.5-.3-.5-58.2c-.5-56.9-.5-58.3-2.5-60.3-3.3-3.3-7.8-4.1-11.7-2.2-1.8 1-3.8 2.8-4.5 4.2-1 1.9-1.3 17.3-1.3 66.2V426l2.9 3.2 2.9 3.3 30.9.3c65.4.7 94.1-4.9 123.8-24.2 34.4-22.4 54.4-58 62.6-111.6 1.9-12.2 2.3-18.9 2.3-42 .1-29-.6-36.9-5-58.3C348.6 135.6 309.7 95.1 252.2 83c-16.3-3.4-25.3-4-64.2-4.6-35-.5-37.7-.4-41 1.3z"/><path d="M146.8 246.8c-6.3 3.2-7.6 10.2-2.9 15.4 2.5 2.8 3.6 3.3 7.2 3.2 8.3-.3 12.9-9.8 7.7-15.9-3.3-3.7-7.9-4.7-12-2.7z"/></svg>