<?xml version="1.0" standalone="no"?>
<!DOCTYPE svg PUBLIC "-//W3C//DTD SVG 20010904//EN"
 "http://www.w3.org/TR/2001/REC-SVG-20010904/DTD/svg10.dtd">
<svg version="1.0" xmlns="http://www.w3.org/2000/svg"
 width="1024.000000pt" height="1024.000000pt" viewBox="0 0 1024.000000 1024.000000"
 preserveAspectRatio="xMidYMid meet">
<metadata>
Created by potrace 1.14, written by Peter Selinger 2001-2017
</metadata>
<g transform="translate(0.000000,1024.000000) scale(0.100000,-0.100000)"
fill="#000000" stroke="none">
<path d="M5010 10219 c-70 -25 -136 -86 -184 -169 -20 -36 -41 -72 -46 -80
-18 -28 -173 -305 -197 -350 -26 -50 -45 -82 -53 -90 -3 -3 -18 -30 -34 -60
-48 -89 -51 -95 -57 -100 -3 -3 -14 -23 -26 -45 -38 -73 -58 -110 -63 -115 -3
-3 -10 -14 -16 -25 -43 -80 -269 -478 -298 -525 -11 -19 -20 -38 -18 -42 1 -5
-2 -8 -8 -8 -5 0 -10 -4 -10 -8 0 -5 -40 -78 -88 -163 -49 -85 -91 -161 -95
-169 -4 -8 -21 -37 -37 -65 -17 -27 -38 -66 -48 -85 -9 -19 -20 -37 -23 -40
-6 -5 -56 -93 -93 -165 -12 -22 -24 -42 -27 -45 -3 -3 -19 -30 -36 -60 -34
-63 -90 -161 -116 -205 -10 -16 -23 -42 -30 -57 -6 -16 -15 -28 -20 -28 -4 0
-5 -4 -2 -10 3 -5 1 -10 -4 -10 -6 0 -11 -4 -11 -9 0 -4 -30 -60 -66 -122 -37
-63 -67 -120 -67 -126 0 -7 -3 -13 -7 -13 -4 0 -15 -17 -26 -37 -10 -21 -26
-49 -35 -63 -9 -14 -30 -50 -47 -80 -16 -30 -55 -99 -85 -152 -31 -54 -53 -98
-49 -98 3 0 -1 -6 -9 -12 -8 -7 -20 -25 -26 -40 -10 -23 -9 -27 8 -31 10 -3
22 -1 25 4 3 5 10 7 15 3 16 -10 70 -11 75 -2 3 4 14 4 24 -2 13 -7 21 -7 25
0 4 6 12 7 18 3 13 -8 86 -8 94 1 3 2 15 1 28 -4 14 -5 26 -5 33 2 6 6 12 6
16 -1 5 -8 13 -8 27 -1 12 7 19 7 19 1 0 -7 8 -7 23 -2 12 5 31 5 42 1 11 -4
25 -3 32 2 7 6 14 5 18 -2 3 -6 11 -8 16 -4 15 9 69 11 75 3 2 -4 18 -4 34 1
17 5 30 6 30 2 0 -4 25 -7 55 -7 30 0 55 3 55 7 0 4 11 3 25 -2 17 -6 25 -6
25 1 0 6 6 7 17 0 10 -5 26 -5 40 0 13 5 23 5 23 1 0 -4 25 -7 55 -7 30 0 55
3 55 7 0 4 11 3 25 -2 16 -6 25 -6 25 1 0 6 6 6 18 0 11 -6 24 -6 34 0 9 5 19
6 22 1 5 -8 85 -7 93 2 3 3 15 1 28 -4 14 -5 26 -5 33 2 6 6 12 6 16 -1 5 -8
13 -8 27 -1 12 7 19 7 19 1 0 -7 8 -7 23 -2 12 5 31 5 42 1 11 -4 25 -3 32 2
7 5 14 5 18 -2 4 -7 12 -7 27 1 14 7 23 8 30 1 7 -7 19 -7 34 -2 15 6 24 6 24
0 0 -6 10 -6 26 0 14 6 23 6 20 2 -5 -9 69 -6 84 3 6 3 10 3 10 -2 0 -4 13 -8
29 -8 16 0 27 3 24 7 -2 5 7 4 21 -2 16 -6 27 -6 31 1 4 6 13 6 23 0 10 -6 23
-6 34 0 10 6 19 5 23 -1 4 -7 12 -7 25 0 10 6 21 7 23 3 6 -10 59 -9 75 1 6 3
13 2 17 -4 4 -7 12 -7 25 0 10 6 21 7 24 2 5 -8 85 -7 93 2 3 3 15 1 28 -4 14
-5 26 -5 33 2 6 6 12 6 16 -1 5 -8 13 -8 27 -1 12 7 19 7 19 1 0 -7 8 -7 23
-2 12 5 31 5 42 1 11 -4 25 -3 32 2 7 6 14 5 18 -2 3 -6 11 -8 16 -4 15 9 69
11 75 3 2 -4 18 -4 34 1 17 5 30 6 30 2 0 -4 25 -7 55 -7 30 0 55 3 55 7 0 4
11 3 25 -2 17 -6 25 -6 25 1 0 6 6 7 17 0 10 -5 26 -5 40 0 13 5 23 5 23 1 0
-4 25 -7 55 -7 30 0 55 3 55 7 0 4 11 3 25 -2 17 -6 25 -6 25 1 0 7 6 7 17 0
11 -6 24 -6 35 0 9 5 19 6 22 1 5 -8 85 -7 93 2 3 3 15 1 28 -4 14 -5 26 -5
33 2 6 6 12 6 16 -1 5 -8 13 -8 27 -1 12 7 19 7 19 1 0 -7 8 -7 23 -2 12 5 31
5 42 1 11 -4 25 -3 32 2 7 5 14 5 18 -2 4 -7 12 -7 26 0 12 7 19 7 19 1 0 -7
8 -7 23 -2 12 5 31 5 42 1 11 -4 25 -3 32 2 7 5 14 5 18 -2 4 -7 12 -7 26 0
12 7 19 7 19 1 0 -7 8 -7 23 -2 12 5 31 5 42 1 11 -4 25 -3 32 2 7 6 14 5 18
-2 3 -6 11 -8 16 -4 15 9 69 11 75 3 2 -4 18 -4 34 1 17 5 30 6 30 2 0 -4 25
-7 55 -7 30 0 55 3 55 7 0 4 11 3 25 -2 17 -6 25 -6 25 1 0 6 5 7 11 4 15 -10
80 -12 85 -3 3 5 14 4 24 -2 13 -7 21 -7 25 0 4 6 13 7 23 1 11 -6 24 -6 34 0
11 6 19 6 23 -1 4 -7 13 -7 26 0 11 6 19 7 19 1 0 -5 9 -7 20 -4 11 3 20 7 20
9 0 2 -13 26 -30 54 -16 28 -30 52 -30 54 0 2 -29 53 -64 114 -36 61 -77 133
-92 159 -14 26 -61 109 -104 183 -42 74 -89 158 -105 185 -15 28 -41 73 -57
100 -16 28 -34 61 -41 75 -6 14 -14 27 -17 30 -5 5 -32 54 -58 105 -9 17 -18
32 -21 35 -4 3 -12 16 -19 30 -7 14 -25 48 -41 75 -17 28 -38 66 -49 85 -33
59 -63 112 -102 180 -39 66 -64 111 -108 190 -14 25 -66 117 -116 205 -51 88
-95 167 -99 175 -4 8 -15 29 -25 45 -10 17 -30 50 -44 75 -14 25 -36 63 -48
85 -13 22 -33 58 -44 80 -12 22 -24 42 -27 45 -3 3 -25 41 -49 85 -48 89 -95
172 -110 195 -5 8 -19 33 -31 55 -12 22 -53 93 -90 158 -38 65 -69 120 -69
122 0 2 -14 28 -31 57 -18 29 -45 78 -62 108 -16 30 -37 63 -45 73 -8 9 -11
17 -7 17 4 0 1 8 -7 18 -8 9 -30 44 -48 77 -87 156 -244 220 -400 164z"/>
<path d="M3693 10003 c-26 -14 -49 -30 -51 -34 -2 -5 -8 -9 -12 -9 -5 0 -52
-29 -105 -65 -53 -36 -98 -65 -100 -65 -2 0 -47 -29 -100 -65 -53 -36 -100
-65 -106 -65 -5 0 -9 -3 -9 -8 0 -4 -20 -18 -45 -32 -25 -14 -45 -28 -45 -32
0 -5 -4 -8 -9 -8 -11 0 -98 -57 -119 -77 -8 -7 -17 -11 -22 -8 -5 3 -10 1 -12
-3 -4 -11 -94 -72 -106 -72 -6 0 -12 -4 -14 -8 -1 -4 -82 -59 -178 -122 -96
-62 -196 -129 -222 -147 -26 -18 -50 -33 -52 -33 -2 0 -48 -29 -101 -65 -54
-36 -99 -65 -102 -65 -2 0 -9 -5 -16 -11 -7 -6 -55 -38 -107 -72 -324 -212
-412 -267 -420 -267 -6 0 -10 -4 -10 -9 0 -5 -21 -22 -47 -37 -26 -15 -52 -31
-58 -36 -22 -18 -147 -98 -153 -98 -4 0 -18 -9 -32 -20 -31 -25 -190 -130
-196 -130 -3 0 -10 -5 -17 -11 -30 -26 -357 -235 -362 -231 -3 3 -5 1 -5 -4 0
-5 -22 -23 -49 -38 -27 -16 -54 -39 -59 -50 -12 -27 -7 -89 7 -94 6 -2 18 -10
26 -18 8 -8 16 -14 17 -13 2 1 22 -10 46 -25 24 -15 54 -32 68 -38 13 -6 24
-15 24 -20 0 -4 4 -8 10 -8 10 0 330 -188 340 -199 3 -4 23 -15 45 -26 22 -11
41 -23 43 -27 2 -5 8 -8 14 -8 5 0 29 -13 53 -30 24 -16 47 -30 51 -30 4 0 15
-6 23 -14 16 -13 94 -59 138 -80 13 -6 23 -14 23 -18 0 -5 5 -8 11 -8 6 0 30
-13 54 -30 24 -16 46 -30 49 -30 2 0 40 -22 83 -48 43 -26 85 -51 93 -55 20
-9 292 -174 305 -184 6 -4 24 -15 40 -23 17 -8 32 -18 35 -21 3 -3 15 -12 28
-18 20 -11 27 -10 43 5 10 9 19 21 19 26 0 5 16 37 36 71 20 34 55 96 77 137
22 41 50 91 61 110 12 19 30 53 41 75 11 22 23 42 26 45 3 3 23 37 44 75 101
187 117 215 126 221 5 3 9 14 9 24 0 10 3 20 8 22 6 2 89 147 207 363 15 28
44 79 65 115 20 36 40 72 43 80 4 8 11 22 17 30 12 18 56 97 100 176 18 33 44
79 58 104 14 25 32 59 40 75 8 17 23 41 32 55 10 14 32 52 49 85 18 33 36 67
41 75 33 53 169 301 175 319 3 11 10 21 14 21 4 0 13 16 21 35 8 19 17 35 22
35 4 0 8 5 8 10 0 6 21 48 47 93 25 45 60 107 76 137 16 30 33 60 38 65 4 6
32 58 62 116 49 95 55 110 47 142 -27 122 -132 175 -237 120z"/>
<path d="M6393 10005 c-23 -14 -51 -40 -62 -59 -25 -40 -28 -112 -5 -144 8
-12 12 -22 8 -22 -3 0 -2 -6 4 -12 5 -7 22 -34 36 -60 41 -75 71 -130 96 -173
99 -172 340 -610 340 -617 0 -4 4 -8 9 -8 5 0 14 -12 20 -27 5 -16 26 -55 45
-88 19 -33 45 -80 59 -105 14 -25 34 -61 46 -80 11 -19 24 -42 28 -50 4 -8 23
-44 44 -80 20 -36 51 -92 69 -125 18 -33 42 -76 53 -95 11 -19 30 -53 42 -75
44 -79 78 -141 115 -205 54 -93 80 -139 107 -190 13 -25 34 -63 46 -85 13 -22
32 -56 42 -75 11 -19 26 -43 34 -52 8 -10 10 -18 6 -18 -4 0 -1 -8 7 -17 14
-17 70 -117 127 -228 14 -27 31 -54 36 -61 6 -6 19 -30 29 -53 11 -22 23 -41
28 -41 4 0 8 -4 8 -10 0 -13 109 -208 121 -216 9 -5 63 21 85 42 7 6 26 17 43
24 17 7 31 16 31 21 0 5 4 9 9 9 10 0 132 70 141 80 3 3 20 12 38 19 17 8 32
17 32 22 0 4 9 11 21 14 11 4 55 29 97 56 42 27 84 52 92 56 8 4 44 25 80 47
36 21 74 44 85 50 11 6 90 53 175 104 165 99 165 99 246 150 29 17 56 32 59
32 3 0 11 5 18 10 16 14 348 210 354 210 3 0 19 14 35 31 26 27 29 36 23 67
-4 20 -10 39 -14 42 -32 22 -529 350 -556 367 -11 7 -27 16 -35 20 -8 4 -24
15 -34 25 -11 10 -25 18 -32 18 -7 0 -14 3 -16 8 -4 9 -53 42 -90 61 -16 8
-28 18 -28 23 0 4 -4 8 -9 8 -5 0 -56 31 -113 68 -128 85 -329 217 -468 307
-58 37 -158 103 -223 147 -66 43 -123 78 -128 78 -5 0 -9 5 -9 10 0 6 -4 10
-10 10 -11 0 -103 62 -108 73 -2 4 -8 7 -13 7 -5 0 -77 45 -159 100 -83 55
-155 100 -160 100 -4 0 -10 3 -12 8 -5 11 -66 52 -78 52 -5 0 -10 5 -10 10 0
6 -4 10 -9 10 -4 0 -55 31 -112 69 -198 131 -260 171 -265 171 -3 0 -14 9 -26
20 -11 10 -36 26 -54 35 -19 9 -34 20 -34 26 0 6 -4 8 -8 5 -5 -3 -18 4 -30
14 -12 11 -26 20 -32 20 -5 0 -10 5 -10 10 0 6 -6 10 -13 10 -7 0 -23 9 -35
20 -12 11 -26 20 -32 20 -5 0 -10 5 -10 10 0 6 -5 10 -10 10 -6 0 -28 11 -48
25 -56 37 -117 40 -169 10z"/>
<path d="M345 7282 l-25 -25 0 -1649 c0 -1520 1 -1652 17 -1678 20 -35 67 -47
100 -25 24 16 93 115 93 134 0 5 4 11 8 13 7 3 117 177 179 285 12 21 25 43
30 49 10 12 11 15 104 169 40 66 75 122 79 125 4 3 9 10 11 15 6 15 123 209
129 215 3 3 41 64 85 135 43 72 102 168 131 215 30 47 68 111 86 143 18 31 36
57 40 57 5 0 8 5 8 11 0 6 19 41 43 77 23 37 56 90 72 117 15 28 31 52 34 55
3 3 11 14 17 25 21 38 39 69 47 79 24 33 227 369 227 377 0 5 5 9 10 9 6 0 10
7 10 15 0 8 5 15 10 15 6 0 10 4 10 9 0 5 16 35 35 67 40 67 41 70 18 77 -19
6 -74 38 -83 48 -3 3 -32 21 -65 39 -33 19 -61 37 -63 42 -2 4 -12 8 -23 8
-10 0 -19 4 -19 8 0 5 -12 15 -27 22 -16 8 -59 34 -96 57 -37 24 -72 43 -77
43 -6 0 -10 5 -10 12 0 6 -3 9 -6 6 -5 -6 -60 26 -91 52 -7 5 -15 10 -19 10
-4 0 -35 17 -68 39 -34 21 -117 71 -185 112 -68 41 -140 84 -160 96 -20 13
-43 26 -51 30 -8 4 -45 26 -83 50 -37 24 -70 43 -73 43 -3 0 -18 8 -32 19 -15
10 -49 31 -77 46 -27 16 -52 31 -55 34 -3 3 -25 17 -50 30 -25 13 -52 29 -60
36 -46 37 -103 40 -135 7z"/>
<path d="M9790 7290 c-19 -11 -43 -23 -52 -26 -10 -4 -18 -10 -18 -15 0 -5 -4
-9 -9 -9 -6 0 -85 -46 -178 -102 -92 -55 -188 -112 -213 -126 -25 -13 -52 -30
-60 -37 -8 -6 -37 -25 -65 -41 -73 -42 -77 -44 -167 -99 -46 -27 -90 -53 -98
-57 -28 -15 -295 -177 -307 -188 -7 -5 -14 -10 -17 -10 -6 0 -318 -189 -329
-200 -7 -6 32 -76 123 -220 9 -14 57 -93 83 -135 7 -11 14 -22 17 -25 3 -3 11
-16 18 -30 13 -28 34 -62 42 -70 3 -3 26 -39 50 -80 24 -41 47 -77 50 -80 3
-3 12 -18 20 -35 8 -16 23 -39 33 -49 9 -11 17 -23 17 -28 0 -4 15 -31 34 -60
18 -29 46 -73 62 -98 15 -25 29 -47 29 -50 1 -3 19 -33 40 -67 77 -120 112
-178 113 -187 0 -5 4 -12 9 -15 9 -6 42 -58 264 -424 48 -78 92 -147 98 -154
6 -7 11 -15 11 -19 0 -3 14 -26 30 -51 17 -24 30 -46 30 -49 0 -3 14 -25 30
-49 17 -24 30 -48 30 -52 0 -5 8 -18 18 -29 11 -11 21 -25 23 -31 2 -6 56 -94
119 -196 73 -118 123 -190 139 -197 31 -14 84 3 100 33 9 17 11 425 9 1680
l-3 1658 -25 19 c-32 25 -57 25 -100 0z"/>
<path d="M3110 6088 c0 -6 380 -674 408 -718 9 -14 17 -27 17 -30 0 -3 26 -49
58 -102 31 -53 57 -101 57 -107 0 -5 3 -11 8 -13 7 -3 45 -69 67 -115 5 -13
13 -23 18 -23 4 0 7 -4 7 -9 0 -5 32 -64 70 -131 39 -67 70 -126 70 -131 0 -5
5 -9 10 -9 6 0 10 -4 10 -9 0 -5 50 -96 110 -201 61 -105 110 -195 110 -200 0
-6 5 -10 10 -10 6 0 10 -4 10 -10 0 -5 32 -63 70 -129 39 -66 70 -125 70 -131
0 -5 5 -10 10 -10 6 0 10 -4 10 -9 0 -5 61 -115 135 -245 74 -129 135 -238
135 -241 0 -3 5 -11 10 -18 16 -18 100 -169 100 -179 0 -4 4 -8 9 -8 5 0 12
-11 15 -25 4 -14 11 -25 16 -25 6 0 10 -5 10 -11 0 -5 25 -53 55 -105 30 -53
55 -100 55 -105 0 -5 3 -9 8 -9 4 0 16 -20 27 -45 11 -25 23 -45 26 -45 3 0
16 -23 29 -50 13 -27 27 -50 32 -50 4 0 8 -5 8 -11 0 -6 22 -48 48 -92 26 -45
51 -89 55 -97 4 -8 14 -26 21 -39 l14 -24 24 39 c14 22 40 66 58 99 19 33 38
63 44 67 6 4 7 8 2 8 -5 0 -4 6 2 13 9 12 355 613 397 692 36 66 50 90 56 95
3 3 29 48 58 100 28 52 56 102 61 110 19 29 180 312 180 315 0 2 19 36 43 77
24 40 46 80 50 88 4 8 16 29 27 45 11 17 26 44 34 60 24 48 60 109 74 123 6 7
12 17 12 22 0 7 92 169 130 230 5 8 23 42 41 75 17 33 38 67 45 76 8 8 14 18
14 21 0 6 82 151 138 246 17 28 28 52 24 52 -4 0 -2 4 4 8 9 6 77 120 97 162
4 8 16 29 27 45 11 17 24 40 30 53 5 12 21 39 34 59 14 20 23 40 20 45 -3 4
-1 8 3 8 5 0 27 32 48 71 22 38 51 89 63 112 13 23 48 83 78 134 30 51 54 96
54 101 0 5 7 15 15 22 16 13 21 45 6 35 -5 -3 -12 -2 -15 3 -5 8 -85 7 -93 -2
-3 -3 -15 -1 -28 4 -14 5 -26 5 -33 -2 -6 -6 -12 -6 -16 1 -5 8 -13 8 -27 1
-12 -7 -19 -7 -19 -1 0 7 -8 7 -22 2 -13 -5 -32 -5 -43 -1 -11 4 -25 3 -32 -2
-7 -6 -14 -5 -18 2 -3 6 -11 8 -16 4 -15 -9 -69 -11 -75 -3 -2 4 -18 4 -34 -1
-17 -5 -30 -6 -30 -2 0 4 -25 7 -55 7 -30 0 -55 -3 -55 -7 0 -4 -11 -3 -25 2
-17 6 -25 6 -25 -1 0 -6 -6 -7 -17 0 -10 5 -26 5 -40 0 -13 -5 -23 -5 -23 -1
0 4 -25 7 -55 7 -30 0 -55 -3 -55 -7 0 -4 -11 -3 -25 2 -16 6 -25 6 -25 -1 0
-6 -6 -6 -18 0 -11 6 -24 6 -34 0 -9 -5 -19 -6 -22 -1 -5 8 -85 7 -93 -2 -3
-3 -15 -1 -28 4 -14 5 -26 5 -33 -2 -6 -6 -12 -6 -16 1 -5 8 -13 8 -27 1 -12
-7 -19 -7 -19 -1 0 7 -8 7 -22 2 -13 -5 -32 -5 -43 -1 -11 4 -25 3 -32 -2 -7
-5 -14 -5 -18 2 -4 7 -12 7 -27 -1 -14 -7 -23 -8 -30 -1 -7 7 -19 7 -34 2 -15
-6 -24 -6 -24 0 0 6 -10 6 -26 0 -14 -6 -23 -6 -20 -2 5 9 -69 6 -84 -3 -6 -3
-10 -3 -10 2 0 4 -13 8 -29 8 -16 0 -27 -3 -24 -7 2 -5 -7 -4 -21 2 -16 6 -27
6 -31 0 -4 -6 -13 -7 -23 -1 -11 6 -24 6 -34 0 -11 -6 -19 -6 -23 1 -4 7 -12
7 -25 0 -10 -6 -21 -7 -23 -3 -6 10 -59 9 -75 -1 -6 -3 -13 -2 -17 4 -4 7 -12
7 -25 0 -10 -6 -21 -7 -24 -2 -5 8 -85 7 -93 -2 -3 -3 -15 -1 -28 4 -14 5 -26
5 -33 -2 -6 -6 -12 -6 -16 1 -5 8 -13 8 -27 1 -12 -7 -19 -7 -19 -1 0 7 -8 7
-22 2 -13 -5 -32 -5 -43 -1 -11 4 -25 3 -32 -2 -7 -6 -14 -5 -18 2 -3 6 -11 8
-16 4 -15 -9 -69 -11 -75 -3 -2 4 -18 4 -34 -1 -17 -5 -30 -6 -30 -2 0 4 -25
7 -55 7 -30 0 -55 -3 -55 -7 0 -4 -11 -3 -25 2 -17 6 -25 6 -25 -1 0 -6 -6 -7
-17 0 -10 5 -26 5 -40 0 -13 -5 -23 -5 -23 -1 0 4 -25 7 -55 7 -30 0 -55 -3
-55 -7 0 -4 -11 -3 -25 2 -16 6 -25 6 -25 -1 0 -6 -6 -6 -18 0 -11 6 -24 6
-34 0 -9 -5 -19 -6 -22 -1 -5 8 -85 7 -93 -2 -3 -3 -15 -1 -28 4 -14 5 -26 5
-33 -2 -6 -6 -12 -6 -16 1 -5 8 -13 8 -27 1 -12 -7 -19 -7 -19 -1 0 7 -8 7
-22 2 -13 -5 -32 -5 -43 -1 -11 4 -25 3 -32 -2 -7 -5 -14 -5 -18 2 -4 7 -12 7
-26 0 -12 -7 -19 -7 -19 -1 0 7 -8 7 -22 2 -13 -5 -32 -5 -43 -1 -11 4 -25 3
-32 -2 -7 -5 -14 -5 -18 2 -4 7 -12 7 -26 0 -12 -7 -19 -7 -19 -1 0 7 -8 7
-22 2 -13 -5 -32 -5 -43 -1 -11 4 -25 3 -32 -2 -7 -6 -14 -5 -18 2 -3 6 -11 8
-16 4 -15 -9 -69 -11 -75 -3 -2 4 -18 4 -34 -1 -17 -5 -30 -6 -30 -2 0 4 -25
7 -55 7 -30 0 -55 -3 -55 -7 0 -4 -11 -3 -25 2 -16 6 -25 6 -25 -1 0 -6 -6 -6
-18 0 -11 6 -24 6 -34 0 -11 -6 -19 -6 -23 1 -4 7 -12 7 -24 0 -12 -6 -22 -5
-29 2 -7 7 -12 9 -12 6z"/>
<path d="M2405 5863 c-28 -42 -54 -81 -60 -87 -11 -12 -96 -138 -130 -192 -28
-45 -543 -804 -565 -834 -11 -14 -31 -45 -46 -70 -15 -25 -30 -47 -33 -50 -13
-11 -51 -70 -51 -79 0 -5 -7 -11 -15 -15 -8 -3 -15 -10 -15 -16 0 -5 -22 -41
-50 -80 -27 -39 -50 -74 -50 -80 0 -5 -6 -13 -14 -17 -7 -4 -15 -13 -17 -18
-2 -6 -58 -90 -124 -188 -66 -98 -124 -185 -130 -195 -5 -9 -13 -19 -16 -22
-9 -8 -66 -94 -70 -105 -3 -11 -14 -26 -41 -56 -10 -10 -18 -23 -18 -29 0 -5
-4 -10 -10 -10 -5 0 -10 -5 -10 -11 0 -6 -29 -52 -63 -102 -35 -51 -121 -177
-192 -282 -70 -104 -134 -198 -143 -207 -8 -10 -12 -18 -8 -18 4 0 0 -8 -9
-17 -10 -9 -43 -55 -73 -102 -31 -47 -62 -92 -69 -99 -6 -6 -15 -21 -18 -32
-3 -11 -10 -20 -14 -20 -14 0 -34 -88 -28 -120 9 -45 48 -97 85 -115 19 -8 59
-18 91 -20 54 -5 111 -11 176 -20 17 -2 59 -7 95 -10 36 -3 83 -7 105 -10 22
-3 63 -8 90 -10 28 -3 66 -7 85 -9 63 -7 174 -19 215 -22 22 -1 40 -3 40 -4 0
-1 18 -3 40 -5 22 -1 40 -3 40 -4 0 -2 20 -4 45 -6 25 -2 70 -6 100 -9 30 -4
82 -9 115 -12 32 -2 72 -7 87 -9 15 -3 56 -7 90 -10 35 -3 79 -7 98 -10 19 -3
62 -8 95 -11 33 -3 74 -7 90 -9 17 -2 57 -6 90 -9 33 -4 74 -9 90 -11 37 -5
157 -17 210 -21 22 -1 40 -3 40 -4 0 -2 45 -7 120 -15 59 -5 105 -10 195 -20
25 -2 65 -6 90 -9 25 -2 72 -7 105 -11 109 -12 119 -13 185 -19 36 -4 76 -8
90 -10 14 -3 54 -7 90 -10 128 -12 175 -17 205 -21 17 -2 57 -7 90 -10 33 -3
74 -8 90 -10 47 -6 154 -17 205 -20 25 -2 45 -4 45 -5 0 -2 16 -4 35 -5 83 -6
106 -9 117 -17 6 -5 14 -4 18 2 3 6 11 7 17 4 6 -4 25 -8 42 -10 61 -5 142
-13 176 -18 74 -10 170 -17 170 -12 0 3 -36 70 -80 147 -44 78 -80 143 -80
146 0 2 -5 9 -11 16 -15 17 -179 309 -179 319 0 4 -4 8 -10 8 -5 0 -10 4 -10
9 0 5 -33 67 -74 138 -40 70 -84 148 -98 173 -111 196 -249 434 -258 446 -7 7
-9 14 -5 14 5 0 1 8 -7 18 -14 17 -51 79 -94 157 -12 22 -51 91 -87 153 -36
61 -63 112 -61 112 3 0 -4 10 -16 22 -11 12 -20 25 -20 29 0 7 -117 214 -140
249 -6 8 -13 22 -17 30 -8 16 -169 300 -237 415 -22 39 -41 72 -41 75 0 3 -8
16 -16 30 -40 64 -89 152 -89 161 0 5 -4 9 -10 9 -5 0 -10 5 -10 11 0 6 -10
25 -22 42 -13 18 -22 34 -22 37 1 3 -4 14 -11 25 -38 62 -85 147 -85 156 0 5
-4 9 -10 9 -5 0 -10 5 -10 11 0 6 -9 24 -21 40 -11 16 -18 29 -15 29 3 0 -6
16 -19 36 -13 19 -27 44 -30 55 -4 10 -11 19 -16 19 -5 0 -9 5 -9 11 0 6 -17
41 -39 77 -21 37 -50 87 -63 112 -21 37 -138 241 -142 247 -1 1 -24 -33 -51
-74z"/>
<path d="M7780 5927 c0 -9 -4 -17 -10 -17 -5 0 -10 -6 -10 -14 0 -7 -7 -19
-15 -26 -8 -6 -14 -15 -12 -18 1 -4 -6 -18 -14 -32 -9 -14 -47 -79 -85 -145
-37 -66 -72 -123 -77 -126 -5 -3 -9 -10 -9 -15 1 -13 -140 -258 -152 -266 -6
-4 -8 -8 -4 -8 3 0 -41 -81 -98 -181 -57 -99 -104 -183 -104 -186 0 -4 -6 -14
-14 -22 -7 -9 -30 -46 -50 -84 -39 -71 -119 -212 -136 -237 -6 -8 -13 -22 -17
-30 -3 -8 -44 -79 -90 -158 -45 -79 -83 -145 -83 -147 0 -2 -19 -36 -43 -77
-24 -40 -46 -80 -50 -88 -4 -8 -16 -28 -27 -45 -11 -16 -25 -41 -32 -55 -11
-22 -107 -190 -162 -283 -10 -18 -29 -52 -43 -77 -13 -25 -35 -63 -48 -85 -13
-22 -116 -202 -229 -400 -113 -198 -212 -369 -221 -380 -8 -10 -15 -23 -15
-27 0 -7 -140 -253 -209 -368 -11 -19 -25 -44 -30 -56 -5 -12 -23 -44 -40 -71
-17 -28 -31 -53 -31 -57 0 -6 50 -3 175 10 22 2 60 6 85 8 25 2 63 7 85 10 42
6 145 16 205 21 19 1 53 5 75 9 22 3 69 8 105 11 62 4 87 7 190 21 25 3 67 7
95 9 27 2 70 7 95 10 25 3 63 7 85 9 63 7 167 18 205 22 19 2 60 6 90 9 30 2
55 5 55 6 0 1 25 4 130 13 28 3 50 5 50 6 0 1 18 4 40 5 51 4 137 13 195 20
25 3 65 7 90 10 25 2 68 6 95 9 28 3 75 8 105 11 30 4 74 8 97 10 23 2 63 7
90 10 50 6 103 12 188 21 28 3 66 7 85 9 19 2 62 6 95 9 33 4 74 8 90 10 17 2
57 7 90 10 33 4 80 9 105 11 25 3 70 7 100 10 30 2 66 7 80 9 14 3 56 8 94 11
38 3 88 8 110 11 55 6 130 14 191 19 28 3 64 7 80 9 17 3 62 8 100 12 39 3 82
8 98 10 26 3 73 8 182 19 114 12 176 73 171 169 -3 47 -12 65 -97 190 -52 76
-98 146 -104 155 -5 9 -39 59 -75 111 -36 52 -64 95 -63 97 1 1 -9 15 -22 29
-14 15 -25 33 -25 40 0 7 -4 14 -8 16 -5 2 -51 66 -102 143 -51 77 -97 142
-102 143 -4 2 -8 10 -8 18 0 8 -3 14 -8 14 -4 0 -12 9 -17 20 -6 11 -46 73
-90 138 -44 64 -84 124 -90 133 -5 9 -45 67 -87 129 -43 62 -78 116 -78 121 0
5 -3 9 -8 9 -4 0 -16 16 -26 35 -11 19 -23 35 -28 35 -4 0 -8 5 -8 10 0 12
-41 73 -52 78 -5 2 -8 9 -8 16 0 7 -9 21 -20 31 -11 10 -20 22 -20 27 0 5 -9
18 -20 30 -11 12 -20 28 -20 35 0 7 -4 13 -8 13 -4 0 -16 15 -27 33 -10 17
-21 34 -24 37 -3 3 -10 13 -16 22 -13 23 -288 431 -295 438 -3 3 -34 48 -69
100 -209 312 -266 395 -273 398 -4 2 -8 9 -9 15 0 7 -16 32 -35 57 -18 25 -38
55 -44 68 -5 12 -14 22 -20 22 -5 0 -10 5 -10 11 0 6 -25 47 -56 92 -68 99
-64 94 -64 74z"/>
<path d="M668 1901 c-23 -22 -31 -62 -19 -93 10 -28 14 -30 226 -125 55 -25
123 -55 150 -68 28 -12 142 -64 255 -115 113 -51 234 -106 270 -123 36 -16 70
-31 75 -32 6 -2 46 -20 90 -41 44 -21 82 -38 85 -39 11 -3 59 -25 135 -60 44
-21 98 -45 120 -55 22 -9 56 -24 75 -33 19 -8 76 -34 125 -57 50 -23 104 -48
120 -55 71 -30 300 -133 400 -180 28 -12 108 -49 178 -80 71 -31 141 -63 155
-71 15 -8 30 -14 34 -14 3 0 55 -23 115 -51 102 -48 135 -63 158 -70 6 -1 45
-20 87 -41 43 -21 80 -38 82 -38 3 0 40 -16 83 -36 43 -20 116 -53 163 -74
103 -45 181 -81 278 -126 41 -19 75 -34 77 -34 2 0 47 -21 102 -46 54 -26 103
-47 108 -48 6 -1 17 -6 25 -11 32 -20 166 -75 198 -81 35 -7 112 13 112 28 0
4 6 8 13 8 8 0 25 23 38 50 21 42 24 60 19 100 -4 28 -2 50 2 50 5 0 7 4 4 9
-5 8 -6 33 -5 134 0 9 0 33 0 52 0 19 0 42 0 50 0 8 -1 60 -1 115 -1 54 1 104
5 110 3 5 2 10 -3 10 -5 0 -6 17 -2 40 4 22 4 40 0 40 -4 0 -4 18 0 40 4 22 4
40 0 40 -4 0 -4 18 0 40 4 22 4 55 1 73 -4 17 -4 51 -1 75 4 23 4 42 0 42 -3
0 -4 22 0 50 4 28 2 50 -2 50 -5 0 -6 4 -3 10 3 5 5 33 5 62 0 29 0 62 0 73 1
41 -1 81 -4 99 -3 21 -8 22 -106 31 -36 4 -76 8 -90 10 -25 4 -77 10 -175 20
-27 3 -66 7 -85 9 -19 3 -62 7 -96 11 -33 3 -71 8 -85 10 -14 3 -54 7 -89 10
-36 3 -83 8 -105 10 -22 3 -62 8 -90 10 -80 8 -137 14 -185 20 -25 3 -67 7
-95 10 -27 3 -68 7 -90 10 -46 7 -83 11 -175 19 -36 4 -76 8 -90 10 -14 3 -54
7 -90 10 -36 4 -76 8 -90 11 -14 2 -52 7 -85 10 -33 2 -76 7 -95 9 -61 8 -154
18 -195 21 -22 2 -60 6 -85 10 -25 3 -70 8 -100 11 -30 3 -71 8 -90 10 -19 2
-57 6 -85 9 -27 3 -68 7 -90 10 -22 2 -67 7 -100 10 -33 3 -76 8 -95 11 -19 2
-60 7 -90 10 -30 2 -72 7 -92 9 -21 3 -55 7 -75 10 -21 2 -63 7 -93 9 -30 3
-71 7 -90 10 -43 6 -153 18 -200 21 -19 2 -51 5 -70 8 -48 8 -168 20 -207 21
-18 0 -33 3 -33 6 0 3 -15 6 -32 7 -40 1 -151 11 -198 18 -91 14 -175 12 -192
-4z"/>
<path d="M9478 1915 c-1 -1 -37 -6 -78 -10 -41 -3 -100 -9 -130 -12 -30 -3
-70 -6 -87 -7 -18 -1 -33 -3 -33 -6 0 -3 -15 -5 -33 -6 -17 -1 -59 -4 -92 -7
-143 -15 -162 -17 -190 -21 -16 -3 -57 -7 -90 -11 -71 -7 -113 -12 -275 -30
-25 -3 -63 -7 -85 -10 -22 -2 -60 -6 -85 -9 -25 -3 -76 -8 -115 -12 -83 -8
-110 -12 -110 -14 0 -1 -18 -3 -40 -4 -45 -4 -149 -14 -210 -22 -22 -2 -62 -7
-90 -9 -27 -3 -68 -7 -90 -9 -22 -3 -64 -8 -94 -11 -30 -3 -68 -8 -85 -10 -54
-7 -119 -14 -191 -20 -38 -4 -81 -8 -95 -10 -14 -2 -52 -7 -85 -10 -33 -4 -76
-9 -95 -11 -19 -2 -60 -6 -90 -10 -30 -3 -66 -7 -80 -9 -14 -2 -54 -7 -90 -10
-36 -3 -81 -8 -100 -10 -19 -2 -60 -6 -90 -10 -30 -3 -69 -8 -87 -10 -28 -4
-97 -11 -198 -21 -16 -1 -30 -3 -30 -4 0 0 -20 -3 -45 -5 -25 -2 -63 -6 -85
-9 -22 -3 -69 -8 -105 -11 -36 -3 -83 -9 -105 -12 -22 -3 -53 -7 -70 -8 -36
-3 -136 -14 -185 -20 -19 -3 -62 -7 -95 -10 -33 -3 -69 -7 -79 -9 -19 -3 -38
-34 -29 -49 7 -12 5 -205 -2 -217 -3 -5 -2 -10 3 -10 5 0 6 -17 2 -40 -4 -22
-4 -40 0 -40 4 0 4 -18 0 -40 -4 -22 -4 -40 0 -40 4 0 4 -18 0 -40 -4 -22 -4
-55 -1 -73 4 -17 4 -51 1 -74 -4 -24 -4 -43 0 -43 3 0 4 -23 0 -50 -4 -28 -4
-50 -1 -50 4 0 4 -31 1 -70 -3 -38 -3 -70 1 -70 3 0 3 -22 -1 -50 -4 -27 -3
-50 0 -50 4 0 4 -19 0 -43 -3 -23 -3 -57 1 -74 3 -18 3 -51 -1 -73 -4 -23 -3
-40 2 -40 5 0 7 -4 4 -8 -14 -23 -5 -116 15 -153 32 -61 130 -93 198 -65 39
15 302 132 409 182 29 13 57 24 62 24 6 0 10 4 10 8 0 5 6 9 13 9 6 1 86 34
177 76 91 41 180 80 198 88 17 8 32 17 32 21 0 5 3 7 8 6 9 -2 32 7 102 39 30
14 91 41 135 60 44 20 126 57 183 84 57 27 106 49 110 49 8 0 65 28 92 45 8 5
22 10 30 12 8 1 48 18 88 38 40 19 74 35 77 35 2 0 48 20 101 45 53 25 98 45
100 45 2 0 47 20 100 45 53 25 102 45 109 45 7 0 18 7 25 15 7 8 18 15 24 15
7 0 34 11 62 24 83 40 139 64 154 68 8 2 17 5 20 8 3 3 55 28 115 55 61 26
135 60 165 74 30 14 57 26 60 27 3 0 32 13 65 28 33 15 80 37 105 48 25 11 72
33 105 48 33 15 83 37 110 50 28 12 93 42 145 65 101 46 128 58 370 167 85 38
172 78 193 89 20 10 37 16 37 12 0 -3 11 6 25 22 21 22 25 34 20 63 -3 21 -12
43 -20 51 -12 12 -88 25 -97 16z"/>
</g>
</svg>
