<svg width="118" height="23" viewBox="0 0 118 23" fill="none" xmlns="http://www.w3.org/2000/svg">
  <g stroke="#c2c2c2">
  <path d="M2 12.7631C9.51684 12.7631 16.9853 12.923 24.5 12.7631C39.4746 12.4445 51.6666 12.9325 66.6437 12.9325C78.8057 12.9325 90.9717 13.0284 103.132 12.7631C107.229 12.6737 111.631 12.705 115.675 11.9697" stroke-width="3" stroke-linecap="round"/>
  <path d="M115.996 12.4511C115.957 12.1026 115.582 11.9112 115.318 11.7379C113.498 10.5435 111.48 9.68451 109.452 8.91194C105.548 7.42468 101.616 6.03278 97.6937 4.5972C95.4043 3.75925 92.9813 2.94971 90.8026 1.86038" stroke-width="3" stroke-linecap="round"/>
  <path d="M115.996 12.6115C114.521 15.1585 110.44 16.5383 107.937 17.4077C99.8304 20.2224 91.2059 20.4259 82.7794 21.4371" stroke-width="3" stroke-linecap="round"/>
  </g>
</svg>
