<svg width="398" height="398" viewBox="0 0 398 398" fill="none" xmlns="http://www.w3.org/2000/svg">
<g clip-path="url(#clip0_350_527)">
<path d="M117.789 109.839C123.41 111.913 125.031 118.183 121.466 122.999L97.5393 160.156C94.4096 165.592 88.3252 166.158 84.037 162.685L52.0286 134.22C47.833 130.22 46.9248 122.987 50.0545 117.55L62.0181 98.9718C65.0552 94.0632 72.5657 91.5713 77.6594 93.5527L117.789 109.839M78.761 192.775C84.0673 190.44 89.5038 193.57 91.125 199.84L100.982 242.921C102.076 249.098 98.5108 253.914 93.0468 254.044L50.2983 255.798C44.3065 255.836 38.5272 251.558 37.4339 245.381L32.5052 223.84C31.4118 217.663 34.7267 211.171 40.033 208.837L78.761 192.775M109.839 279.297C111.913 273.676 118.183 272.054 122.999 275.619L160.156 299.546C165.592 302.676 166.158 308.761 162.593 313.577L133.692 344.965C129.692 349.16 122.459 350.068 117.022 346.939L98.4439 334.975C93.5353 331.938 91.0434 324.428 93.0248 319.334L109.839 279.297M192.775 318.325C190.44 313.019 193.57 307.582 199.84 305.961L242.921 296.103C249.098 295.01 253.914 298.575 254.044 304.039L255.798 346.788C255.836 352.779 251.558 358.559 245.381 359.652L223.84 364.581C217.663 365.674 211.171 362.359 208.837 357.053L192.775 318.325M279.297 287.247C273.676 285.173 272.054 278.903 275.619 274.087L299.546 236.93C302.584 232.021 308.761 230.928 313.577 234.493L345.492 263.486C349.688 267.487 350.596 274.719 347.467 280.156L335.503 298.735C332.466 303.643 324.955 306.135 319.862 304.154L279.297 287.247ZM318.325 204.311C313.018 206.645 307.582 203.516 305.961 197.246L296.103 154.165C295.01 147.988 298.575 143.172 304.039 143.042L346.787 141.288C352.779 141.25 358.559 145.528 359.652 151.705L364.581 173.246C365.767 178.895 362.359 185.915 357.053 188.249L318.325 204.311ZM287.247 117.789C285.173 123.41 278.903 125.031 274.087 121.466L236.93 97.5394C231.493 94.4096 230.928 88.3252 234.493 83.5092L262.866 52.0286C266.866 47.8331 274.099 46.9249 279.535 50.0546L298.114 62.0181C303.023 65.0553 305.514 72.5657 303.533 77.6594L287.247 117.789M204.311 78.761C206.645 84.0673 203.516 89.5038 197.246 91.125L154.165 100.983C148.516 102.168 143.172 98.5108 143.042 93.0468L141.288 50.2984C141.25 44.3065 145.528 38.5273 151.705 37.4339L173.246 32.5052C179.423 31.4119 185.915 34.7267 188.249 40.033L204.311 78.761" fill="#3E4347"/>
<path d="M221.961 64.9884C148.058 52.0296 77.9471 101.221 64.9883 175.124C52.0295 249.028 101.221 319.139 175.124 332.097C249.028 345.056 319.139 295.865 332.097 221.961C345.056 148.058 295.865 77.9472 221.961 64.9884ZM183.825 282.476C137.372 274.331 106.464 230.279 114.609 183.825C122.755 137.372 166.807 106.464 213.26 114.609C259.714 122.755 290.622 166.807 282.476 213.26C274.331 259.714 230.279 290.622 183.825 282.476V282.476Z" fill="#3E4347"/>
<path d="M216.778 94.5498C159.238 84.4605 104.639 122.769 94.5498 180.308C84.4604 237.847 122.769 292.447 180.308 302.536C237.847 312.625 292.447 274.317 302.536 216.778C312.625 159.239 274.317 104.639 216.778 94.5498ZM191.601 238.134C169.957 234.339 155.156 213.244 158.952 191.601C162.747 169.957 183.842 155.157 205.485 158.952C227.128 162.747 241.929 183.842 238.134 205.485C234.339 227.128 213.244 241.929 191.601 238.134Z" fill="#94989B"/>
<path d="M212.427 119.36C168.613 111.678 127.043 140.844 119.36 184.658C111.678 228.473 140.844 270.043 184.658 277.725C228.473 285.408 270.043 256.242 277.725 212.427C285.408 168.613 256.242 127.043 212.427 119.36ZM191.601 238.134C169.957 234.339 155.156 213.244 158.952 191.601C162.747 169.957 183.842 155.157 205.485 158.952C227.128 162.747 241.929 183.842 238.134 205.485C234.339 227.128 213.244 241.929 191.601 238.134Z" fill="#3E4347"/>
</g>
<defs>
<clipPath id="clip0_350_527">
<rect width="343" height="343" fill="white" transform="translate(59.2402) rotate(9.94555)"/>
</clipPath>
</defs>
</svg>
