<svg width="64" height="64" viewBox="0 0 64 64" fill="none" xmlns="http://www.w3.org/2000/svg">
<path d="M32 0C14.3267 0 0 14.3267 0 32C0 49.6732 14.3267 64 32 64C49.6732 64 64 49.6732 64 32C64 14.3267 49.6732 0 32 0Z" fill="#40B3E0"/>
<path d="M47.5707 18.4075L41.855 47.2248C41.855 47.2248 41.0557 49.2233 38.8575 48.264L25.668 38.152L20.872 35.834L12.7985 33.116C12.7985 33.116 11.5595 32.6765 11.4395 31.7173C11.3195 30.758 12.8385 30.2385 12.8385 30.2385L44.9325 17.6485C44.9325 17.6485 47.5705 16.4895 47.5705 18.408" fill="white"/>
<path d="M24.6545 46.9007C24.6545 46.9007 24.2695 46.8647 23.7895 45.3457C23.3103 43.827 20.872 35.8335 20.872 35.8335L40.2565 23.5235C40.2565 23.5235 41.3758 22.844 41.3358 23.5235C41.3358 23.5235 41.5355 23.6435 40.9358 24.203C40.3365 24.7627 25.7083 37.912 25.7083 37.912" fill="#D2E5F1"/>
<path d="M30.7253 42.0288L25.5085 46.7853C25.5085 46.7853 25.1005 47.0947 24.6545 46.9007L25.6535 38.0658" fill="#B5CFE4"/>
</svg>
