<svg width="119" height="119" viewBox="0 0 119 119" fill="none" xmlns="http://www.w3.org/2000/svg">
<path d="M20 83C20 74.7157 26.7157 68 35 68V68C43.2843 68 50 74.7157 50 83V83C50 91.2843 43.2843 98 35 98V98C26.7157 98 20 91.2843 20 83V83Z" fill="#BCBCBC"/>
<path d="M20 37C20 28.7157 26.7157 22 35 22V22C43.2843 22 50 28.7157 50 37V37C50 45.2843 43.2843 52 35 52V52C26.7157 52 20 45.2843 20 37V37Z" fill="#BCBCBC"/>
<path d="M67 83C67 74.7157 73.7157 68 82 68V68C90.2843 68 97 74.7157 97 83V83C97 91.2843 90.2843 98 82 98V98C73.7157 98 67 91.2843 67 83V83Z" fill="#BCBCBC"/>
<rect x="67" y="22" width="30" height="30" rx="15" fill="#BCBCBC"/>
</svg>
