<svg width="119" height="119" viewBox="0 0 119 119" fill="none" xmlns="http://www.w3.org/2000/svg">
<path d="M13 91C13 82.7157 19.7157 76 28 76V76C36.2843 76 43 82.7157 43 91V91C43 99.2843 36.2843 106 28 106V106C19.7157 106 13 99.2843 13 91V91Z" fill="#BCBCBC"/>
<path d="M13 29C13 20.7157 19.7157 14 28 14V14C36.2843 14 43 20.7157 43 29V29C43 37.2843 36.2843 44 28 44V44C19.7157 44 13 37.2843 13 29V29Z" fill="#BCBCBC"/>
<path d="M75 91C75 82.7157 81.7157 76 90 76V76C98.2843 76 105 82.7157 105 91V91C105 99.2843 98.2843 106 90 106V106C81.7157 106 75 99.2843 75 91V91Z" fill="#BCBCBC"/>
<rect x="75" y="14" width="30" height="30" rx="15" fill="#BCBCBC"/>
<rect x="44" y="46" width="30" height="30" rx="15" fill="#BCBCBC"/>
</svg>
