<svg width="64" height="64" viewBox="0 0 64 64" fill="none" xmlns="http://www.w3.org/2000/svg">
<rect width="64" height="64" rx="32" fill="#CB1E25"/>
<path d="M19.4575 27.97C20.1575 27.3167 20.9275 26.7858 21.7675 26.3775C22.6075 25.9692 23.5933 25.765 24.725 25.765C25.705 25.765 26.5742 25.9342 27.3325 26.2725C28.0908 26.5992 28.7208 27.0658 29.2225 27.6725C29.7358 28.2675 30.1208 28.985 30.3775 29.825C30.6458 30.6533 30.78 31.5692 30.78 32.5725V44H26.4575V32.5725C26.4575 31.4758 26.2067 30.63 25.705 30.035C25.2033 29.4283 24.4392 29.125 23.4125 29.125C22.6658 29.125 21.9658 29.2942 21.3125 29.6325C20.6592 29.9708 20.0408 30.4317 19.4575 31.015V44H15.135V17.995H19.4575V27.97ZM37.6384 27.97C38.3384 27.3167 39.1084 26.7858 39.9484 26.3775C40.7884 25.9692 41.7742 25.765 42.9059 25.765C43.8859 25.765 44.755 25.9342 45.5134 26.2725C46.2717 26.5992 46.9017 27.0658 47.4034 27.6725C47.9167 28.2675 48.3017 28.985 48.5584 29.825C48.8267 30.6533 48.9609 31.5692 48.9609 32.5725V44H44.6384V32.5725C44.6384 31.4758 44.3875 30.63 43.8859 30.035C43.3842 29.4283 42.62 29.125 41.5934 29.125C40.8467 29.125 40.1467 29.2942 39.4934 29.6325C38.84 29.9708 38.2217 30.4317 37.6384 31.015V44H33.3159V17.995H37.6384V27.97Z" fill="white"/>
</svg>
